/* XPM */
static char *out[] = {
/* columns rows colors chars-per-pixel */
"132 31 97 2 ",
"   c #66FF00",
".  c #2B252F",
"X  c #2A2730",
"o  c #2A2832",
"O  c #292C35",
"+  c #27363F",
"@  c #28323B",
"#  c #28333C",
"$  c #273740",
"%  c #273A43",
"&  c #263B44",
"*  c #263C45",
"=  c #263D46",
"-  c #263F47",
";  c #254049",
":  c #25424B",
">  c #25454D",
",  c #234C55",
"<  c #225259",
"1  c #22535B",
"2  c #21555D",
"3  c #21565E",
"4  c #215860",
"5  c #205B62",
"6  c #205E65",
"7  c #205E66",
"8  c #1F6168",
"9  c #1E676E",
"0  c #1D6A70",
"q  c #1D6B72",
"w  c #1D6C73",
"e  c #1C6F75",
"r  c #1C7178",
"t  c #1B747A",
"y  c #1B757B",
"u  c #1A797F",
"i  c #1A7C82",
"p  c #197F85",
"a  c #188389",
"s  c #18878C",
"d  c #17888D",
"f  c #17898F",
"g  c #178B90",
"h  c #168E93",
"j  c #169196",
"k  c #159297",
"l  c #159398",
"z  c #159499",
"x  c #14979C",
"c  c #14989D",
"v  c #14999D",
"b  c #149BA0",
"n  c #139DA2",
"m  c #139EA2",
"M  c #139FA3",
"N  c #12A3A7",
"B  c #12A5A9",
"V  c #11A8AC",
"C  c #11ABAF",
"Z  c #10AEB2",
"A  c #0FB1B4",
"S  c #0FB2B5",
"D  c #0FB3B6",
"F  c #0FB4B8",
"G  c #0FB5B9",
"H  c #0EB8BB",
"J  c #0EB9BD",
"K  c #0DBDC0",
"L  c #0CC2C5",
"P  c #0CC3C6",
"I  c #0BC8CB",
"U  c #0ACACC",
"Y  c #0ACBCD",
"T  c #09D1D3",
"R  c #09D3D5",
"E  c #08D4D6",
"W  c #08D5D7",
"Q  c #08D6D8",
"!  c #07DADC",
"~  c #07DEDF",
"^  c #08D8DA",
"/  c #05E4E5",
"(  c #04E9EA",
")  c #03EEEF",
"_  c #04ECED",
"`  c #04EDEE",
"'  c #03F0F0",
"]  c #03F1F2",
"[  c #02F6F6",
"{  c #02F7F8",
"}  c #01F8F8",
"|  c #01FBFB",
" . c #01FCFC",
".. c #01FCFD",
"X. c #00FDFD",
"o. c #00FEFE",
"O. c cyan",
/* pixels */
"        & w j z z z z z z z z z z z z z z z z z z z z z z z u             o 1 a z z z z z z z z z z z z z z z z z z a 1 o                     & w j z z z z z z z z z z z z z z z z z z z z z z z u       l z z z z z @                                   q z z z z z 6 ",
"    $ J O.O.O.O.O.O.O.O.O.O.O.O.O.O.O.O.O.O.O.O.O.O.O.O.O.O.Y           r ) O.O.O.O.O.O.O.O.O.O.O.O.O.O.O.O.O.O.O.O.O.O.) r               $ J O.O.O.O.O.O.O.O.O.O.O.O.O.O.O.O.O.O.O.O.O.O.O.O.O.O.Y       ..O.O.O.O.O.;                                   A O.O.O.O.O.x ",
"  : _ O.O.O.O.O.O.O.O.O.O.O.O.O.O.O.O.O.O.O.O.O.O.O.O.O.O.O.Y         m O.O.O.O.O.O.O.O.O.O.O.O.O.O.O.O.O.O.O.O.O.O.O.O.O.O.M           : _ O.O.O.O.O.O.O.O.O.O.O.O.O.O.O.O.O.O.O.O.O.O.O.O.O.O.O.Y       ..O.O.O.O.O.;                                   A O.O.O.O.O.x ",
". Y O.O.O.O.O.O.O.O.O.O.O.O.O.O.O.O.O.O.O.O.O.O.O.O.O.O.O.O.Y       8 o.O.O.O.O.O.O.O.O.O.O.O.O.O.O.O.O.O.O.O.O.O.O.O.O.O.O.o.8       . Y O.O.O.O.O.O.O.O.O.O.O.O.O.O.O.O.O.O.O.O.O.O.O.O.O.O.O.O.Y       ..O.O.O.O.O.;                                   A O.O.O.O.O.x ",
"q O.O.O.O.O.O.O.O.O.O.O.O.O.O.O.O.O.O.O.O.O.O.O.O.O.O.O.O.O.Y       Q O.O.O.O.O.O.O.O.O.O.O.O.O.O.O.O.O.O.O.O.O.O.O.O.O.O.O.O.W       q O.O.O.O.O.O.O.O.O.O.O.O.O.O.O.O.O.O.O.O.O.O.O.O.O.O.O.O.O.Y       ..O.O.O.O.O.;                                   A O.O.O.O.O.x ",
"b O.O.O.O.O.O.O.O.O.O.O.O.O.O.O.O.O.O.O.O.O.O.O.O.O.O.O.O.O.Y     O  .O.O.O.O.O.O.O.O.O.O.O.O.O.O.O.O.O.O.O.O.O.O.O.O.O.O.O.O. .O     b O.O.O.O.O.O.O.O.O.O.O.O.O.O.O.O.O.O.O.O.O.O.O.O.O.O.O.O.O.Y       ..O.O.O.O.O.;                                   A O.O.O.O.O.x ",
"P O.O.O.O.O.T F F F F F F F F F F F F F F F F F F F F F F F k     2 O.O.O.O.O.[ F F F F F F F F F F F F F F F F F F [ O.O.O.O.O.2     P O.O.O.O.O.T F F F F F F F F F F F F F F F F F F F F F F F k       ..O.O.O.O.O.;                                   A O.O.O.O.O.x ",
"Y O.O.O.O.O.i                                                     7 O.O.O.O.O./                                     / O.O.O.O.O.7     Y O.O.O.O.O.i                                                       ..O.O.O.O.O.;                                   A O.O.O.O.O.x ",
"Y O.O.O.O.O.i                                                     7 O.O.O.O.O./                                     / O.O.O.O.O.7     Y O.O.O.O.O.i                                                       ..O.O.O.O.O.;                                   A O.O.O.O.O.x ",
"Y O.O.O.O.O.i                                                     7 O.O.O.O.O./                                     / O.O.O.O.O.7     Y O.O.O.O.O.i                                                       ..O.O.O.O.O.;                                   A O.O.O.O.O.x ",
"Y O.O.O.O.O.i                                                     7 O.O.O.O.O./                                     / O.O.O.O.O.7     Y O.O.O.O.O.i                                                       ..O.O.O.O.O.;                                   A O.O.O.O.O.x ",
"Y O.O.O.O.O.i                                                     7 O.O.O.O.O./                                     / O.O.O.O.O.7     Y O.O.O.O.O.i                                                       ..O.O.O.O.O.;                                   A O.O.O.O.O.x ",
"Y O.O.O.O.O.N 0 0 0 0 0 0 0 0 0 0 0 0 0 0 0 0 0 0 0 0 0 0 0 4     7 O.O.O.O.O._ 0 0 0 0 0 0 0 0 0 0 0 0 0 0 0 0 0 0 _ O.O.O.O.O.7     U O.O.O.O.O.N 0 0 0 0 0 0 0 0 0 0 0 0 0 0 0 0 0 9 -                  .O.O.O.O.O.i 0 0 0 0 0 0 0 0 0 0 0 0 0 0 0 0 0 I O.O.O.O.O.x ",
"Y O.O.O.O.O.O.O.O.O.O.O.O.O.O.O.O.O.O.O.O.O.O.O.O.O.O.O.O.O.Y     7 O.O.O.O.O.O.O.O.O.O.O.O.O.O.O.O.O.O.O.O.O.O.O.O.O.O.O.O.O.O.7     C O.O.O.O.O.O.O.O.O.O.O.O.O.O.O.O.O.O.O.O.O.O.O.O.O._ l X           ~ O.O.O.O.O.O.O.O.O.O.O.O.O.O.O.O.O.O.O.O.O.O.O.O.O.O.O.O.O.x ",
"Y O.O.O.O.O.O.O.O.O.O.O.O.O.O.O.O.O.O.O.O.O.O.O.O.O.O.O.O.O.Y     7 O.O.O.O.O.O.O.O.O.O.O.O.O.O.O.O.O.O.O.O.O.O.O.O.O.O.O.O.O.O.7     p O.O.O.O.O.O.O.O.O.O.O.O.O.O.O.O.O.O.O.O.O.O.O.O.O.O.O.R #         F O.O.O.O.O.O.O.O.O.O.O.O.O.O.O.O.O.O.O.O.O.O.O.O.O.O.O.O.O.x ",
"Y O.O.O.O.O.O.O.O.O.O.O.O.O.O.O.O.O.O.O.O.O.O.O.O.O.O.O.O.O.Y     7 O.O.O.O.O.O.O.O.O.O.O.O.O.O.O.O.O.O.O.O.O.O.O.O.O.O.O.O.O.O.7     $ ` O.O.O.O.O.O.O.O.O.O.O.O.O.O.O.O.O.O.O.O.O.O.O.O.O.O.O.A         7 X.O.O.O.O.O.O.O.O.O.O.O.O.O.O.O.O.O.O.O.O.O.O.O.O.O.O.O.O.x ",
"Y O.O.O.O.O.O.O.O.O.O.O.O.O.O.O.O.O.O.O.O.O.O.O.O.O.O.O.O.O.Y     7 O.O.O.O.O.O.O.O.O.O.O.O.O.O.O.O.O.O.O.O.O.O.O.O.O.O.O.O.O.O.7       e O.O.O.O.O.O.O.O.O.O.O.O.O.O.O.O.O.O.O.O.O.O.O.O.O.O.O.O.5         B O.O.O.O.O.O.O.O.O.O.O.O.O.O.O.O.O.O.O.O.O.O.O.O.O.O.O.O.x ",
"Y O.O.O.O.O.O.O.O.O.O.O.O.O.O.O.O.O.O.O.O.O.O.O.O.O.O.O.O.O.Y     7 O.O.O.O.O.O.O.O.O.O.O.O.O.O.O.O.O.O.O.O.O.O.O.O.O.O.O.O.O.O.7         t ' O.O.O.O.O.O.O.O.O.O.O.O.O.O.O.O.O.O.O.O.O.O.O.O.O.O.l         o v  .O.O.O.O.O.O.O.O.O.O.O.O.O.O.O.O.O.O.O.O.O.O.O.O.O.O.x ",
"Y O.O.O.O.O.( ! ! ! ! ! ! ! ! ! ! ! ! ! ! ! ! ! ! ! ! ! ! ! Z     7 O.O.O.O.O.| ! ! ! ! ! ! ! ! ! ! ! ! ! ! ! ! ! ! | O.O.O.O.O.7           % h H ^ ! ! ! ! ! ! ! ! ! ! ! ! ! ! ! ! ! ( O.O.O.O.O.K             < c L ! ! ! ! ! ! ! ! ! ! ! ! ! ! ! ! ! ! ] O.O.O.O.O.x ",
"Y O.O.O.O.O.i                                                     7 O.O.O.O.O./                                     / O.O.O.O.O.7                                                     i O.O.O.O.O.Y                                                       A O.O.O.O.O.x ",
"Y O.O.O.O.O.i                                                     7 O.O.O.O.O./                                     / O.O.O.O.O.7                                                     i O.O.O.O.O.Y                                                       A O.O.O.O.O.x ",
"Y O.O.O.O.O.i                                                     7 O.O.O.O.O./                                     / O.O.O.O.O.7                                                     i O.O.O.O.O.Y                                                       A O.O.O.O.O.x ",
"Y O.O.O.O.O.i                                                     7 O.O.O.O.O./                                     / O.O.O.O.O.7                                                     i O.O.O.O.O.Y                                                       A O.O.O.O.O.x ",
"Y O.O.O.O.O.i                                                     7 O.O.O.O.O./                                     / O.O.O.O.O.7                                                     i O.O.O.O.O.Y                                                       A O.O.O.O.O.x ",
"Y O.O.O.O.O.f * * * * * * * * * * * * * * * * * * * * * * * +     7 O.O.O.O.O./                                     / O.O.O.O.O.7     + * * * * * * * * * * * * * * * * * * * * * * * f O.O.O.O.O.Y       * * * * * * * * * * * * * * * * * * * * * * * * J O.O.O.O.O.x ",
"D O.O.O.O.O.O.O.O.O.O.O.O.O.O.O.O.O.O.O.O.O.O.O.O.O.O.O.O.O.Y     7 O.O.O.O.O./                                     / O.O.O.O.O.7     Y O.O.O.O.O.O.O.O.O.O.O.O.O.O.O.O.O.O.O.O.O.O.O.O.O.O.O.O.O.S       ..O.O.O.O.O.O.O.O.O.O.O.O.O.O.O.O.O.O.O.O.O.O.O.O.O.O.O.O.O.i ",
"d O.O.O.O.O.O.O.O.O.O.O.O.O.O.O.O.O.O.O.O.O.O.O.O.O.O.O.O.O.Y     7 O.O.O.O.O./                                     / O.O.O.O.O.7     Y O.O.O.O.O.O.O.O.O.O.O.O.O.O.O.O.O.O.O.O.O.O.O.O.O.O.O.O.O.s       ..O.O.O.O.O.O.O.O.O.O.O.O.O.O.O.O.O.O.O.O.O.O.O.O.O.O.O.O.O., ",
"> { O.O.O.O.O.O.O.O.O.O.O.O.O.O.O.O.O.O.O.O.O.O.O.O.O.O.O.O.Y     7 O.O.O.O.O./                                     / O.O.O.O.O.7     Y O.O.O.O.O.O.O.O.O.O.O.O.O.O.O.O.O.O.O.O.O.O.O.O.O.O.O.O.{ >       ..O.O.O.O.O.O.O.O.O.O.O.O.O.O.O.O.O.O.O.O.O.O.O.O.O.O.O.O.~ X ",
"  g O.O.O.O.O.O.O.O.O.O.O.O.O.O.O.O.O.O.O.O.O.O.O.O.O.O.O.O.Y     7 O.O.O.O.O./                                     / O.O.O.O.O.7     Y O.O.O.O.O.O.O.O.O.O.O.O.O.O.O.O.O.O.O.O.O.O.O.O.O.O.O.O.g         ..O.O.O.O.O.O.O.O.O.O.O.O.O.O.O.O.O.O.O.O.O.O.O.O.O.O.O...3   ",
"  . n ..O.O.O.O.O.O.O.O.O.O.O.O.O.O.O.O.O.O.O.O.O.O.O.O.O.O.Y     7 O.O.O.O.O./                                     / O.O.O.O.O.7     Y O.O.O.O.O.O.O.O.O.O.O.O.O.O.O.O.O.O.O.O.O.O.O.O.O.O...n .         ..O.O.O.O.O.O.O.O.O.O.O.O.O.O.O.O.O.O.O.O.O.O.O.O.O.O.] y     ",
"      4 G ~ ..O.O.O.O.O.O.O.O.O.O.O.O.O.O.O.O.O.O.O.O.O.O.O.Y     7 O.O.O.O.O./                                     / O.O.O.O.O.7     Y O.O.O.O.O.O.O.O.O.O.O.O.O.O.O.O.O.O.O.O.O.O.O...~ G 4             ..O.O.O.O.O.O.O.O.O.O.O.O.O.O.O.O.O.O.O.O.O.O.O.} E V =       "
};
