/* XPM */
static char *out[] = {
/* columns rows colors chars-per-pixel */
"131 31 88 1 ",
"  c #66FF00",
". c #2A2730",
"X c #2A2731",
"o c #2A2933",
"O c #292D36",
"+ c #292D37",
"@ c #293039",
"# c #28313A",
"$ c #28333C",
"% c #28353E",
"& c #263C45",
"* c #263F47",
"= c #254049",
"- c #25414A",
"; c #25424B",
": c #25434C",
"> c #25444C",
", c #234C54",
"< c #234D55",
"1 c #225159",
"2 c #215860",
"3 c #205A62",
"4 c #205C63",
"5 c #205D64",
"6 c #205E66",
"7 c #1F636A",
"8 c #1E666D",
"9 c #1E6970",
"0 c #1D6A71",
"q c #1C7077",
"w c #1B7379",
"e c #1C7279",
"r c #1B767C",
"t c #1A797F",
"y c #1A7C82",
"u c #197E84",
"i c #17888D",
"p c #17888E",
"a c #178B90",
"s c #168E94",
"d c #168F94",
"f c #169095",
"g c #169196",
"h c #159297",
"j c #159398",
"k c #159499",
"l c #15969B",
"z c #14979C",
"x c #139DA2",
"c c #10ADB1",
"v c #0FB1B4",
"b c #0FB3B7",
"n c #0FB4B8",
"m c #0FB5B9",
"M c #0EB6B9",
"N c #0EB8BB",
"B c #0EB9BC",
"V c #0EB9BD",
"C c #0DBCBF",
"Z c #0DBFC2",
"A c #0CC0C3",
"S c #0CC1C4",
"D c #0BC7CA",
"F c #0BC9CB",
"G c #0ACACC",
"H c #0ACBCD",
"J c #0ACCCF",
"K c #09D2D4",
"L c #08D4D6",
"P c #07D9DB",
"I c #07DADC",
"U c #06DFE1",
"Y c #06E1E2",
"T c #06E3E4",
"R c #05E4E5",
"E c #05E4E6",
"W c #05E5E6",
"Q c #05E8E9",
"! c #04E9EA",
"~ c #04EAEB",
"^ c #03F1F2",
"/ c #03F2F3",
"( c #01F8F8",
") c #01F9F9",
"_ c #01FAFA",
"` c #01FBFB",
"' c #01FCFD",
"] c cyan",
/* pixels */
"dfffff#                 0fffff3      +5pffffffffffffffffffw:       dfffffffffffffffffffffffi4O      4ffffffffffffffffffffffffw:    ",
"']]]]]=                 n]]]]]k    Xj_]]]]]]]]]]]]]]]]]]]]]]L,     ']]]]]]]]]]]]]]]]]]]]]]]]])g.    z]]]]]]]]]]]]]]]]]]]]]]]]]]L,  ",
"']]]]]=                 n]]]]]k   XJ]]]]]]]]]]]]]]]]]]]]]]]]](9    ']]]]]]]]]]]]]]]]]]]]]]]]]]]G.   z]]]]]]]]]]]]]]]]]]]]]]]]]]](9 ",
"']]]]]=                 n]]]]]k   l]]]]]]]]]]]]]]]]]]]]]]]]]]]~%   ']]]]]]]]]]]]]]]]]]]]]]]]]]]]h   z]]]]]]]]]]]]]]]]]]]]]]]]]]]]~%",
"']]]]]=                 n]]]]]k  $`]]]]]]]]]]]]]]]]]]]]]]]]]]]]x   ']]]]]]]]]]]]]]]]]]]]]]]]]]]]_@  z]]]]]]]]]]]]]]]]]]]]]]]]]]]]]x",
"']]]]]=                 n]]]]]k  7]]]]]]]]]]]]]]]]]]]]]]]]]]]]]H   ']]]]]]]]]]]]]]]]]]]]]]]]]]]]]6  z]]]]]]]]]]]]]]]]]]]]]]]]]]]]]H",
"']]]]]=                 n]]]]]k  s]]]]]ENNNNNNNNNNNNNNNNNS]]]]]^   ']]]]]ANNNNNNNNNNNNNNNNNW]]]]]a  z]]]]]ENNNNNNNNNNNNNNNNNS]]]]]^",
"']]]]]=                 n]]]]]k  z]]]]]v                 >]]]]])   ']]]]]=                 n]]]]]k  z]]]]]v                 >]]]]])",
"']]]]]=                 n]]]]]k  z]]]]]v                 >]]]]])   ']]]]]=                 n]]]]]k  z]]]]]v                 >]]]]])",
"']]]]]=                 n]]]]]k  z]]]]]v                 >]]]]])   ']]]]]=                 n]]]]]k  z]]]]]v                 >]]]]])",
"']]]]]=                 n]]]]]k  z]]]]]v                 >]]]]])   ']]]]]=                 n]]]]]k  z]]]]]v                 >]]]]])",
"']]]]]=                 n]]]]]k  z]]]]]v                 >]]]]])   ']]]]]=                 n]]]]]k  z]]]]]v                 >]]]]])",
"']]]]]t88888888888888888F]]]]]k  z]]]]]D88888888888888888y]]]]])   ']]]]]t88888888888888888F]]]]]j  z]]]]]v                 >]]]]])",
"']]]]]]]]]]]]]]]]]]]]]]]]]]]]]k  z]]]]]]]]]]]]]]]]]]]]]]]]]]]]])   ']]]]]]]]]]]]]]]]]]]]]]]]]]]]]q  z]]]]]v                 >]]]]])",
"']]]]]]]]]]]]]]]]]]]]]]]]]]]]]k  z]]]]]]]]]]]]]]]]]]]]]]]]]]]]])   ']]]]]]]]]]]]]]]]]]]]]]]]]]]]]=  z]]]]]v                 >]]]]])",
"']]]]]]]]]]]]]]]]]]]]]]]]]]]]]k  z]]]]]]]]]]]]]]]]]]]]]]]]]]]]])   ']]]]]]]]]]]]]]]]]]]]]]]]]]]]D   z]]]]]v                 >]]]]])",
"']]]]]]]]]]]]]]]]]]]]]]]]]]]]]k  z]]]]]]]]]]]]]]]]]]]]]]]]]]]]])   ']]]]]]]]]]]]]]]]]]]]]]]]]]]/*   z]]]]]v                 >]]]]])",
"']]]]]]]]]]]]]]]]]]]]]]]]]]]]]k  z]]]]]]]]]]]]]]]]]]]]]]]]]]]]])   ']]]]]]]]]]]]]]]]]]]]]]]]]]P1    z]]]]]v                 >]]]]])",
"']]]]]UIIIIIIIIIIIIIIIII^]]]]]k  z]]]]]^IIIIIIIIIIIIIIIIIU]]]]])   ']]]]]UIIT]]]]]]]]!IIIIIKcuo     z]]]]]v                 >]]]]])",
"']]]]]=                 n]]]]]k  z]]]]]v                 >]]]]])   ']]]]]=  .b]]]]]]]W;             z]]]]]v                 >]]]]])",
"']]]]]=                 n]]]]]k  z]]]]]v                 >]]]]])   ']]]]]=   .b]]]]]]]W;            z]]]]]v                 >]]]]])",
"']]]]]=                 n]]]]]k  z]]]]]v                 >]]]]])   ']]]]]=    .n]]]]]]]E-           z]]]]]v                 >]]]]])",
"']]]]]=                 n]]]]]k  z]]]]]v                 >]]]]])   ']]]]]=     .n]]]]]]]E-          z]]]]]v                 >]]]]])",
"']]]]]=                 n]]]]]k  z]]]]]v                 >]]]]])   ']]]]]=      .n]]]]]]]E-         z]]]]]v                 >]]]]])",
"']]]]]=                 n]]]]]k  z]]]]]v                 >]]]]])   ']]]]]=       .m]]]]]]]R<&&&&&@  z]]]]]V&&&&&&&&&&&&&&&&&2]]]]])",
"']]]]]=                 n]]]]]k  z]]]]]v                 >]]]]])   ']]]]]=        .m]]]]]]]]]]]]]k  z]]]]]]]]]]]]]]]]]]]]]]]]]]]]]Y",
"']]]]]=                 n]]]]]k  z]]]]]v                 >]]]]])   ']]]]]=         .m]]]]]]]]]]]]k  z]]]]]]]]]]]]]]]]]]]]]]]]]]]]]B",
"']]]]]=                 n]]]]]k  z]]]]]v                 >]]]]])   ']]]]]=          .M]]]]]]]]]]]k  z]]]]]]]]]]]]]]]]]]]]]]]]]]]]]e",
"']]]]]=                 n]]]]]k  z]]]]]v                 >]]]]])   ']]]]]=           .M]]]]]]]]]]k  z]]]]]]]]]]]]]]]]]]]]]]]]]]]]C ",
"']]]]]=                 n]]]]]k  z]]]]]v                 >]]]]])   ']]]]]=            .M]]]]]]]]]k  z]]]]]]]]]]]]]]]]]]]]]]]]]]]Z% ",
"']]]]]=                 n]]]]]k  z]]]]]v                 >]]]]])   ']]]]]=             .jQ]]]]]]]k  z]]]]]]]]]]]]]]]]]]]]]]]]QZr   "
};
