/* XPM */
static char *out[] = {
/* columns rows colors chars-per-pixel */
"198 31 99 2 ",
"   c #66FF00",
".  c #2B252F",
"X  c #2A2730",
"o  c #2A2731",
"O  c #292D36",
"+  c #292D37",
"@  c #27363F",
"#  c #293039",
"$  c #28313A",
"%  c #28333C",
"&  c #28353E",
"*  c #273740",
"=  c #263C45",
"-  c #263D46",
";  c #254049",
":  c #25434C",
">  c #25444C",
",  c #244951",
"<  c #234C54",
"1  c #234C55",
"2  c #234D55",
"3  c #22535B",
"4  c #21555D",
"5  c #21565E",
"6  c #205A62",
"7  c #205C63",
"8  c #205D64",
"9  c #205E66",
"0  c #1F636A",
"q  c #1E646B",
"w  c #1E666D",
"e  c #1E6970",
"r  c #1D6A71",
"t  c #1D6B72",
"y  c #1D6D74",
"u  c #1C7077",
"i  c #1B7379",
"p  c #1C7279",
"a  c #1B747A",
"s  c #1B767C",
"d  c #1B777E",
"f  c #1A797F",
"g  c #197D83",
"h  c #1A7C82",
"j  c #17888D",
"k  c #17888E",
"l  c #178B90",
"z  c #168E93",
"x  c #168E94",
"c  c #168F94",
"v  c #169095",
"b  c #169196",
"n  c #159297",
"m  c #159398",
"M  c #159499",
"N  c #15969B",
"B  c #14979C",
"V  c #139DA2",
"C  c #13A1A5",
"Z  c #11A7AB",
"A  c #0FB1B4",
"S  c #0FB3B7",
"D  c #0FB4B8",
"F  c #0EB8BB",
"G  c #0EB9BD",
"H  c #0DBCBF",
"J  c #0CBFC2",
"K  c #0CC0C3",
"L  c #0CC1C4",
"P  c #0BC7CA",
"I  c #0ACACC",
"U  c #0ACBCD",
"Y  c #0ACCCF",
"T  c #09CFD1",
"R  c #0ACED0",
"E  c #09D3D5",
"W  c #08D4D6",
"Q  c #08D5D7",
"!  c #08D6D8",
"~  c #08D7D9",
"^  c #07DADC",
"/  c #07DBDD",
"(  c #07DEDF",
")  c #05E4E6",
"_  c #05E5E6",
"`  c #05E8E9",
"'  c #04EAEB",
"]  c #04EDEE",
"[  c #03F0F0",
"{  c #03F1F2",
"}  c #02F5F5",
"|  c #02F7F8",
" . c #01F8F8",
".. c #01F9F9",
"X. c #01FAFA",
"o. c #01FBFB",
"O. c #01FCFC",
"+. c #01FCFD",
"@. c cyan",
/* pixels */
"        : a v v v v v v v v v v v v v v v v v v j 7 O                     + 8 k v v v v v v v v v v v v v v v v v v v v v v v z       c v v v v v v v v v v v v v v v v v v v v v v v j 7 O             7 v v v v v v v v v v v v v v v v v v v v v v v v v v v v v z       c v v v v v $                                   r v v v v v 6             + 8 k v v v v v v v v v v v v v v v v v v i :         ",
"    1 Q @.@.@.@.@.@.@.@.@.@.@.@.@.@.@.@.@.@.@.@.@.@...b X             o m X.@.@.@.@.@.@.@.@.@.@.@.@.@.@.@.@.@.@.@.@.@.@.@.@.@...      +.@.@.@.@.@.@.@.@.@.@.@.@.@.@.@.@.@.@.@.@.@.@.@.@.@...b X         B @.@.@.@.@.@.@.@.@.@.@.@.@.@.@.@.@.@.@.@.@.@.@.@.@.@.@.@.@...      +.@.@.@.@.@.;                                   D @.@.@.@.@.M         o m X.@.@.@.@.@.@.@.@.@.@.@.@.@.@.@.@.@.@.@.@.@.@.W <     ",
"  t ..@.@.@.@.@.@.@.@.@.@.@.@.@.@.@.@.@.@.@.@.@.@.@.@.@.I X         o Y @.@.@.@.@.@.@.@.@.@.@.@.@.@.@.@.@.@.@.@.@.@.@.@.@.@.@...      +.@.@.@.@.@.@.@.@.@.@.@.@.@.@.@.@.@.@.@.@.@.@.@.@.@.@.@.I X       B @.@.@.@.@.@.@.@.@.@.@.@.@.@.@.@.@.@.@.@.@.@.@.@.@.@.@.@.@...      +.@.@.@.@.@.;                                   D @.@.@.@.@.M       o Y @.@.@.@.@.@.@.@.@.@.@.@.@.@.@.@.@.@.@.@.@.@.@.@.@. .e   ",
"* ] @.@.@.@.@.@.@.@.@.@.@.@.@.@.@.@.@.@.@.@.@.@.@.@.@.@.@.n         N @.@.@.@.@.@.@.@.@.@.@.@.@.@.@.@.@.@.@.@.@.@.@.@.@.@.@.@...      +.@.@.@.@.@.@.@.@.@.@.@.@.@.@.@.@.@.@.@.@.@.@.@.@.@.@.@.@.n       B @.@.@.@.@.@.@.@.@.@.@.@.@.@.@.@.@.@.@.@.@.@.@.@.@.@.@.@.@...      +.@.@.@.@.@.;                                   D @.@.@.@.@.M       N @.@.@.@.@.@.@.@.@.@.@.@.@.@.@.@.@.@.@.@.@.@.@.@.@.@.@.' & ",
"C @.@.@.@.@.@.@.@.@.@.@.@.@.@.@.@.@.@.@.@.@.@.@.@.@.@.@.@.X.#     % o.@.@.@.@.@.@.@.@.@.@.@.@.@.@.@.@.@.@.@.@.@.@.@.@.@.@.@.@...      +.@.@.@.@.@.@.@.@.@.@.@.@.@.@.@.@.@.@.@.@.@.@.@.@.@.@.@.@.X.#     B @.@.@.@.@.@.@.@.@.@.@.@.@.@.@.@.@.@.@.@.@.@.@.@.@.@.@.@.@...      +.@.@.@.@.@.;                                   D @.@.@.@.@.M     % o.@.@.@.@.@.@.@.@.@.@.@.@.@.@.@.@.@.@.@.@.@.@.@.@.@.@.@.@.V ",
"T @.@.@.@.@.@.@.@.@.@.@.@.@.@.@.@.@.@.@.@.@.@.@.@.@.@.@.@.@.9     0 @.@.@.@.@.@.@.@.@.@.@.@.@.@.@.@.@.@.@.@.@.@.@.@.@.@.@.@.@...      +.@.@.@.@.@.@.@.@.@.@.@.@.@.@.@.@.@.@.@.@.@.@.@.@.@.@.@.@.@.9     B @.@.@.@.@.@.@.@.@.@.@.@.@.@.@.@.@.@.@.@.@.@.@.@.@.@.@.@.@...      +.@.@.@.@.@.;                                   D @.@.@.@.@.M     0 @.@.@.@.@.@.@.@.@.@.@.@.@.@.@.@.@.@.@.@.@.@.@.@.@.@.@.@.@.U ",
"} @.@.@.@.@.K F F F F F { @.@.@.@.@.R F F F F F _ @.@.@.@.@.l     x @.@.@.@.@.) F F F F F F F F F F F F F F F F F F F F F F F S       +.@.@.@.@.@.K F F F F F F F F F F F F F F F F F _ @.@.@.@.@.l     u F F F F F F F F F F F R @.@.@.@.@.{ F F F F F F F F F F F S       +.@.@.@.@.@.;                                   D @.@.@.@.@.M     x @.@.@.@.@.) F F F F F R @.@.@.@.@.{ F F F F F L @.@.@.@.@.{ ",
"+.@.@.@.@.@.;           ~ @.@.@.@.@.y           D @.@.@.@.@.M     B @.@.@.@.@.A                                                       +.@.@.@.@.@.;                                   D @.@.@.@.@.M                             y @.@.@.@.@.~                               +.@.@.@.@.@.;                                   D @.@.@.@.@.M     B @.@.@.@.@.A           y @.@.@.@.@.~           > @.@.@.@.@...",
"+.@.@.@.@.@.;           ~ @.@.@.@.@.y           D @.@.@.@.@.M     B @.@.@.@.@.A                                                       +.@.@.@.@.@.;                                   D @.@.@.@.@.M                             y @.@.@.@.@.~                               +.@.@.@.@.@.;                                   D @.@.@.@.@.M     B @.@.@.@.@.A           y @.@.@.@.@.~           > @.@.@.@.@...",
"+.@.@.@.@.@.;           ~ @.@.@.@.@.y           D @.@.@.@.@.M     B @.@.@.@.@.A                                                       +.@.@.@.@.@.;                                   D @.@.@.@.@.M                             y @.@.@.@.@.~                               +.@.@.@.@.@.;                                   D @.@.@.@.@.M     B @.@.@.@.@.A           y @.@.@.@.@.~           > @.@.@.@.@...",
"+.@.@.@.@.@.;           ~ @.@.@.@.@.y           D @.@.@.@.@.M     B @.@.@.@.@.A                                                       +.@.@.@.@.@.;                                   D @.@.@.@.@.M                             y @.@.@.@.@.~                               +.@.@.@.@.@.;                                   D @.@.@.@.@.M     B @.@.@.@.@.A           y @.@.@.@.@.~           > @.@.@.@.@...",
"+.@.@.@.@.@.;           ~ @.@.@.@.@.y           D @.@.@.@.@.M     B @.@.@.@.@.A                                                       +.@.@.@.@.@.;                                   D @.@.@.@.@.M                             y @.@.@.@.@.~                               +.@.@.@.@.@.;                                   D @.@.@.@.@.M     B @.@.@.@.@.A           y @.@.@.@.@.~           > @.@.@.@.@...",
"+.@.@.@.@.@.;           ~ @.@.@.@.@.y           D @.@.@.@.@.M     B @.@.@.@.@.P w w w w w w w w w w w w w w w w w w w w w w w q       +.@.@.@.@.@.;                                   D @.@.@.@.@.M                             y @.@.@.@.@.~                               +.@.@.@.@.@.;                                   D @.@.@.@.@.M     B @.@.@.@.@.A           y @.@.@.@.@.~           > @.@.@.@.@...",
"+.@.@.@.@.@.;           ~ @.@.@.@.@.y           D @.@.@.@.@.M     B @.@.@.@.@.@.@.@.@.@.@.@.@.@.@.@.@.@.@.@.@.@.@.@.@.@.@.@.@...      +.@.@.@.@.@.;                                   D @.@.@.@.@.M                             y @.@.@.@.@.~                               +.@.@.@.@.@.;                                   D @.@.@.@.@.M     B @.@.@.@.@.A           y @.@.@.@.@.~           > @.@.@.@.@...",
"+.@.@.@.@.@.;           ~ @.@.@.@.@.y           D @.@.@.@.@.M     B @.@.@.@.@.@.@.@.@.@.@.@.@.@.@.@.@.@.@.@.@.@.@.@.@.@.@.@.@...      +.@.@.@.@.@.;                                   D @.@.@.@.@.M                             y @.@.@.@.@.~                               +.@.@.@.@.@.;                                   D @.@.@.@.@.M     B @.@.@.@.@.A           y @.@.@.@.@.~           > @.@.@.@.@...",
"+.@.@.@.@.@.;           ~ @.@.@.@.@.y           D @.@.@.@.@.M     B @.@.@.@.@.@.@.@.@.@.@.@.@.@.@.@.@.@.@.@.@.@.@.@.@.@.@.@.@...      +.@.@.@.@.@.;                                   D @.@.@.@.@.M                             y @.@.@.@.@.~                               +.@.@.@.@.@.;                                   D @.@.@.@.@.M     B @.@.@.@.@.A           y @.@.@.@.@.~           > @.@.@.@.@...",
"+.@.@.@.@.@.;           ~ @.@.@.@.@.y           D @.@.@.@.@.M     B @.@.@.@.@.@.@.@.@.@.@.@.@.@.@.@.@.@.@.@.@.@.@.@.@.@.@.@.@...      +.@.@.@.@.@.;                                   D @.@.@.@.@.M                             y @.@.@.@.@.~                               +.@.@.@.@.@.;                                   D @.@.@.@.@.M     B @.@.@.@.@.A           y @.@.@.@.@.~           > @.@.@.@.@...",
"+.@.@.@.@.@.;           ~ @.@.@.@.@.y           D @.@.@.@.@.M     B @.@.@.@.@.@.@.@.@.@.@.@.@.@.@.@.@.@.@.@.@.@.@.@.@.@.@.@.@...      +.@.@.@.@.@.;                                   D @.@.@.@.@.M                             y @.@.@.@.@.~                               +.@.@.@.@.@.;                                   D @.@.@.@.@.M     B @.@.@.@.@.A           y @.@.@.@.@.~           > @.@.@.@.@...",
"+.@.@.@.@.@.;           ~ @.@.@.@.@.y           D @.@.@.@.@.M     B @.@.@.@.@.{ ^ ^ ^ ^ ^ ^ ^ ^ ^ ^ ^ ^ ^ ^ ^ ^ ^ ^ ^ ^ ^ ^ ^ !       +.@.@.@.@.@.;                                   D @.@.@.@.@.M                             y @.@.@.@.@.~                               +.@.@.@.@.@.;                                   D @.@.@.@.@.M     B @.@.@.@.@.A           y @.@.@.@.@.~           > @.@.@.@.@...",
"+.@.@.@.@.@.;           ~ @.@.@.@.@.y           D @.@.@.@.@.M     B @.@.@.@.@.A                                                       +.@.@.@.@.@.;                                   D @.@.@.@.@.M                             y @.@.@.@.@.~                               +.@.@.@.@.@.;                                   D @.@.@.@.@.M     B @.@.@.@.@.A           y @.@.@.@.@.~           > @.@.@.@.@...",
"+.@.@.@.@.@.;           ~ @.@.@.@.@.y           D @.@.@.@.@.M     B @.@.@.@.@.A                                                       +.@.@.@.@.@.;                                   D @.@.@.@.@.M                             y @.@.@.@.@.~                               +.@.@.@.@.@.;                                   D @.@.@.@.@.M     B @.@.@.@.@.A           y @.@.@.@.@.~           > @.@.@.@.@...",
"+.@.@.@.@.@.;           ~ @.@.@.@.@.y           D @.@.@.@.@.M     B @.@.@.@.@.A                                                       +.@.@.@.@.@.;                                   D @.@.@.@.@.M                             y @.@.@.@.@.~                               +.@.@.@.@.@.;                                   D @.@.@.@.@.M     B @.@.@.@.@.A           y @.@.@.@.@.~           > @.@.@.@.@...",
"+.@.@.@.@.@.;           ~ @.@.@.@.@.y           D @.@.@.@.@.M     B @.@.@.@.@.A                                                       +.@.@.@.@.@.;                                   D @.@.@.@.@.M                             y @.@.@.@.@.~                               +.@.@.@.@.@.;                                   D @.@.@.@.@.M     B @.@.@.@.@.A           y @.@.@.@.@.~           > @.@.@.@.@...",
"+.@.@.@.@.@.;           ~ @.@.@.@.@.y           D @.@.@.@.@.M     B @.@.@.@.@.A                                                       +.@.@.@.@.@.;                                   D @.@.@.@.@.M                             y @.@.@.@.@.~                               +.@.@.@.@.@.;                                   D @.@.@.@.@.M     B @.@.@.@.@.A           y @.@.@.@.@.~           > @.@.@.@.@...",
"+.@.@.@.@.@.;           ~ @.@.@.@.@.y           D @.@.@.@.@.M     B @.@.@.@.@.G = = = = = = = = = = = = = = = = = = = = = = = =       +.@.@.@.@.@.4 = = = = = = = = = = = = = = = = = H @.@.@.@.@.M     # = = = = = = = = = = = h @.@.@.@.@./ = = = = = = = = = = = =       +.@.@.@.@.@.4 = = = = = = = = = = = = = = = = = H @.@.@.@.@.M     B @.@.@.@.@.A           y @.@.@.@.@.~           > @.@.@.@.@...",
"+.@.@.@.@.@.;           ~ @.@.@.@.@.y           D @.@.@.@.@.M     g @.@.@.@.@.@.@.@.@.@.@.@.@.@.@.@.@.@.@.@.@.@.@.@.@.@.@.@.@...      +.@.@.@.@.@.@.@.@.@.@.@.@.@.@.@.@.@.@.@.@.@.@.@.@.@.@.@.@.@.f     B @.@.@.@.@.@.@.@.@.@.@.@.@.@.@.@.@.@.@.@.@.@.@.@.@.@.@.@.@...      _ @.@.@.@.@.@.@.@.@.@.@.@.@.@.@.@.@.@.@.@.@.@.@.@.@.@.@.@.@.f     B @.@.@.@.@.A           y @.@.@.@.@.~           > @.@.@.@.@...",
"+.@.@.@.@.@.;           ~ @.@.@.@.@.y           D @.@.@.@.@.M     2 @.@.@.@.@.@.@.@.@.@.@.@.@.@.@.@.@.@.@.@.@.@.@.@.@.@.@.@.@...      +.@.@.@.@.@.@.@.@.@.@.@.@.@.@.@.@.@.@.@.@.@.@.@.@.@.@.@.@.@.,     B @.@.@.@.@.@.@.@.@.@.@.@.@.@.@.@.@.@.@.@.@.@.@.@.@.@.@.@.@...      H @.@.@.@.@.@.@.@.@.@.@.@.@.@.@.@.@.@.@.@.@.@.@.@.@.@.@.@.@.,     B @.@.@.@.@.A           y @.@.@.@.@.~           > @.@.@.@.@...",
"+.@.@.@.@.@.;           ~ @.@.@.@.@.y           D @.@.@.@.@.M     X ( @.@.@.@.@.@.@.@.@.@.@.@.@.@.@.@.@.@.@.@.@.@.@.@.@.@.@.@...      +.@.@.@.@.@.@.@.@.@.@.@.@.@.@.@.@.@.@.@.@.@.@.@.@.@.@.@.@./ .     B @.@.@.@.@.@.@.@.@.@.@.@.@.@.@.@.@.@.@.@.@.@.@.@.@.@.@.@.@...      s @.@.@.@.@.@.@.@.@.@.@.@.@.@.@.@.@.@.@.@.@.@.@.@.@.@.@.@./ .     B @.@.@.@.@.A           y @.@.@.@.@.~           > @.@.@.@.@...",
"+.@.@.@.@.@.;           ~ @.@.@.@.@.y           D @.@.@.@.@.M       5 +.@.@.@.@.@.@.@.@.@.@.@.@.@.@.@.@.@.@.@.@.@.@.@.@.@.@.@...      +.@.@.@.@.@.@.@.@.@.@.@.@.@.@.@.@.@.@.@.@.@.@.@.@.@.@.@.O.3       B @.@.@.@.@.@.@.@.@.@.@.@.@.@.@.@.@.@.@.@.@.@.@.@.@.@.@.@.@...        J @.@.@.@.@.@.@.@.@.@.@.@.@.@.@.@.@.@.@.@.@.@.@.@.@.@.O.3       B @.@.@.@.@.A           y @.@.@.@.@.~           > @.@.@.@.@...",
"+.@.@.@.@.@.;           ~ @.@.@.@.@.y           D @.@.@.@.@.M         a { @.@.@.@.@.@.@.@.@.@.@.@.@.@.@.@.@.@.@.@.@.@.@.@.@.@...      +.@.@.@.@.@.@.@.@.@.@.@.@.@.@.@.@.@.@.@.@.@.@.@.@.@.@.[ p         B @.@.@.@.@.@.@.@.@.@.@.@.@.@.@.@.@.@.@.@.@.@.@.@.@.@.@.@.@...        @ L @.@.@.@.@.@.@.@.@.@.@.@.@.@.@.@.@.@.@.@.@.@.@.@.[ p         B @.@.@.@.@.A           y @.@.@.@.@.~           > @.@.@.@.@...",
"+.@.@.@.@.@.;           ~ @.@.@.@.@.y           D @.@.@.@.@.M           - Z E  .@.@.@.@.@.@.@.@.@.@.@.@.@.@.@.@.@.@.@.@.@.@.@...      +.@.@.@.@.@.@.@.@.@.@.@.@.@.@.@.@.@.@.@.@.@.@.@.| E Z =           B @.@.@.@.@.@.@.@.@.@.@.@.@.@.@.@.@.@.@.@.@.@.@.@.@.@.@.@.@...            d J ` @.@.@.@.@.@.@.@.@.@.@.@.@.@.@.@.@.@.| E Z =           B @.@.@.@.@.A           y @.@.@.@.@.~           > @.@.@.@.@..."
};
