/* XPM */
static char *out[] = {
/* columns rows colors chars-per-pixel */
"30 34 46 1 ",
"  c #66FF00",
". c #2C242E",
"X c #2D242F",
"o c #2E2330",
"O c #312331",
"+ c #332333",
"@ c #362234",
"# c #3A2136",
"$ c #3D2138",
"% c #471F3E",
"& c #42203B",
"* c #4C1E41",
"= c #521D44",
"- c #591C47",
"; c #5F1B4B",
": c #671A4F",
"> c #6F1854",
", c #771758",
"< c #7E165C",
"1 c #861560",
"2 c #8D1365",
"3 c #951269",
"4 c #99116B",
"5 c #9C116D",
"6 c #A40F72",
"7 c #AC0E76",
"8 c #B30D7A",
"9 c #B80C7D",
"0 c #BB0C7E",
"q c #C20A82",
"w c #C30A83",
"e c #CB0987",
"r c #D8078E",
"t c #D1088B",
"y c #DE0691",
"u c #E30594",
"i c #E80497",
"p c #EC0399",
"a c #F0039C",
"s c #F3029E",
"d c #F7019F",
"f c #F901A1",
"g c #FC01A2",
"h c #FD00A3",
"j c #FE00A4",
"k c #FF00A4",
/* pixels */
"                            ;4",
"                          %0k9",
"                        @5fkk9",
"                      X<pkkkk9",
"                     ;rkkkkkk9",
"                   %0kkkkkkkk9",
"                 @5fkkkkkkkkk9",
"               X<pkkkkkkkkkkk9",
"              -rkkkkkkkkkkkkk9",
"            &8jkkkkkkkkkkkkkk9",
"          +3dkkkkkkkkkkkkkkkk9",
"        .,ikkkkkkkkkkkkkkkkkk9",
"       -tkkkkkkkkkkkkkkkkkkkk9",
"     &8jkkkkkkkkkkkkkkkkkkkkk9",
"   +3dkkkkkkkkkkkkkkkkkkkkkkk9",
" .,ikkkkkkkkkkkkkkkkkkkkkkkkk9",
"-tkkkkkkkkkkkkkkkkkkkkkkkkkkk9",
"qkkkkkkkkkkkkkkkkkkkkkkkkkkkk9",
" :ykkkkkkkkkkkkkkkkkkkkkkkkkk9",
"  o1akkkkkkkkkkkkkkkkkkkkkkkk9",
"    #6gkkkkkkkkkkkkkkkkkkkkkk9",
"      *wkkkkkkkkkkkkkkkkkkkkk9",
"        :ykkkkkkkkkkkkkkkkkkk9",
"         o1akkkkkkkkkkkkkkkkk9",
"           #6gkkkkkkkkkkkkkkk9",
"             *ekkkkkkkkkkkkkk9",
"               >ukkkkkkkkkkkk9",
"                O2skkkkkkkkkk9",
"                  $7hkkkkkkkk9",
"                    =ekkkkkkk9",
"                      >ukkkkk9",
"                       O2skkk9",
"                         $7hk9",
"                           =e9"
};
