/* XPM */
static char *_5dd11c85bc94e9dd340fed28ef7f05bVUquRQDaXcQOpuzd[] = {
/* columns rows colors chars-per-pixel */
"30 34 35 1 ",
"  c #66FF00",
". c #25414A",
"X c #66FF00",
"o c cyan",
"O c #01F9F9",
"+ c #14999D",
"@ c #292F39",
"# c #04EBEC",
"$ c #1A7A80",
"% c #2B252F",
"& c #09D0D2",
"* c #22535B",
"= c #00FEFE",
"- c #0FB1B4",
"; c #263C45",
": c #02F6F7",
"> c #169196",
", c #292D36",
"< c #05E7E8",
"1 c #1C7279",
"2 c #0CC1C4",
"3 c #24464F",
"4 c #07DDDE",
"5 c #1F6269",
"6 c #03F0F0",
"7 c #198287",
"8 c #2A2731",
"9 c #01FCFC",
"0 c #12A1A6",
"q c #28333D",
"w c #02F3F4",
"e c #17898F",
"r c #00FDFD",
"t c #11A9AD",
"y c #273740",
/* pixels */
" .XXXXXXXXXXXXXXXXXXXXXXXXXXXX",
"oO+@XXXXXXXXXXXXXXXXXXXXXXXXXX",
"ooo#$%XXXXXXXXXXXXXXXXXXXXXXXX",
"ooooo&*XXXXXXXXXXXXXXXXXXXXXXX",
"oooooo=-;XXXXXXXXXXXXXXXXXXXXX",
"oooooooo:>,XXXXXXXXXXXXXXXXXXX",
"oooooooooo<1%XXXXXXXXXXXXXXXXX",
"oooooooooooo&*XXXXXXXXXXXXXXXX",
"ooooooooooooo=-;XXXXXXXXXXXXXX",
"ooooooooooooooo:>,XXXXXXXXXXXX",
"ooooooooooooooooo<1%XXXXXXXXXX",
"ooooooooooooooooooo&*XXXXXXXXX",
"oooooooooooooooooooo=-;XXXXXXX",
"oooooooooooooooooooooo:>,XXXXX",
"oooooooooooooooooooooooo<1%XXX",
"oooooooooooooooooooooooooo&*XX",
"ooooooooooooooooooooooooooo=-;",
"ooooooooooooooooooooooooooooo+",
"ooooooooooooooooooooooooooo23X",
"ooooooooooooooooooooooooo45XXX",
"ooooooooooooooooooooooo678XXXX",
"ooooooooooooooooooooo90qXXXXXX",
"oooooooooooooooooooo23XXXXXXXX",
"oooooooooooooooooo45XXXXXXXXXX",
"oooooooooooooooo678XXXXXXXXXXX",
"oooooooooooooo90qXXXXXXXXXXXXX",
"ooooooooooooo23XXXXXXXXXXXXXXX",
"ooooooooooo45XXXXXXXXXXXXXXXXX",
"ooooooooo678XXXXXXXXXXXXXXXXXX",
"ooooooo90qXXXXXXXXXXXXXXXXXXXX",
"oooooo23XXXXXXXXXXXXXXXXXXXXXX",
"oooo45XXXXXXXXXXXXXXXXXXXXXXXX",
"oowe8XXXXXXXXXXXXXXXXXXXXXXXXX",
"rtyXXXXXXXXXXXXXXXXXXXXXXXXXXX"
};
