/* XPM */
static char *out[] = {
/* columns rows colors chars-per-pixel */
"31 31 51 1 ",
"  c #66FF00",
". c #2A2730",
"X c #2A2731",
"o c #2A2832",
"O c #2A2933",
"+ c #293039",
"@ c #28323B",
"# c #28333C",
"$ c #263C45",
"% c #263D46",
"& c #244A52",
"* c #234C55",
"= c #21555D",
"- c #1F5F67",
"; c #1F636A",
": c #1E6970",
"> c #1D6A70",
", c #1B7379",
"< c #1A7A80",
"1 c #1A7C82",
"2 c #17888E",
"3 c #178B90",
"4 c #168E94",
"5 c #159398",
"6 c #159499",
"7 c #15959A",
"8 c #15969B",
"9 c #14979C",
"0 c #12A5A9",
"q c #11A7AB",
"w c #0FB1B4",
"e c #0FB3B6",
"r c #0FB4B8",
"t c #0EB9BD",
"y c #0BC8CB",
"u c #09D0D2",
"i c #09D3D5",
"p c #07D9DB",
"a c #07DADC",
"s c #07DCDD",
"d c #08D8DA",
"f c #06E3E4",
"g c #03F0F1",
"h c #03F1F2",
"j c #02F3F4",
"k c #02F6F6",
"l c #01F8F8",
"z c #01FBFB",
"x c #01FCFC",
"c c #01FCFD",
"v c cyan",
/* pixels */
"5666666666666666666666663-+    ",
"cvvvvvvvvvvvvvvvvvvvvvvvvvz8X  ",
"cvvvvvvvvvvvvvvvvvvvvvvvvvvvuo ",
"cvvvvvvvvvvvvvvvvvvvvvvvvvvvv9 ",
"cvvvvvvvvvvvvvvvvvvvvvvvvvvvvz#",
"cvvvvvvvvvvvvvvvvvvvvvvvvvvvvv;",
"errrrrrrrrrrrrrrrrrrrrrrfvvvvv4",
"                        wvvvvv9",
"                        wvvvvv9",
"                        wvvvvv9",
"                        wvvvvv9",
"                        wvvvvv9",
":>>>>>>>>>>>>>>>>>>>>>>>yvvvvv7",
"cvvvvvvvvvvvvvvvvvvvvvvvvvvvvv,",
"cvvvvvvvvvvvvvvvvvvvvvvvvvvvvpO",
"cvvvvvvvvvvvvvvvvvvvvvvvvvvj0@ ",
"cvvvvvvvvvvvvvvvvvvvvvvvvvvvk< ",
"cvvvvvvvvvvvvvvvvvvvvvvvvvvvvz&",
"daaaaaaaaaaaaaaaaaaaaaaahvvvvv2",
"                        wvvvvv9",
"                        wvvvvv9",
"                        wvvvvv9",
"                        wvvvvv9",
"                        wvvvvv9",
"$$$$$$$$$$$$$$$$$$$$$$$$tvvvvv9",
"cvvvvvvvvvvvvvvvvvvvvvvvvvvvvv1",
"cvvvvvvvvvvvvvvvvvvvvvvvvvvvvv*",
"cvvvvvvvvvvvvvvvvvvvvvvvvvvvvs.",
"cvvvvvvvvvvvvvvvvvvvvvvvvvvvx= ",
"cvvvvvvvvvvvvvvvvvvvvvvvvvvg,  ",
"cvvvvvvvvvvvvvvvvvvvvvvvliq%   "
};
