/* XPM */
static char *out[] = {
/* columns rows colors chars-per-pixel */
"390 13 2 1 ",
"  c #2B242E",
". c #01FFFF",
/* pixels */
"........................................................................................................................................................................................................................................................................................................................................................................                              ",
"........................................................................................................................................................................................................................................................................................................................................................................                              ",
"........................................................................................................................................................................................................................................................................................................................................................................                              ",
"........................................................................................................................................................................................................................................................................................................................................................................                              ",
"........................................................................................................................................................................................................................................................................................................................................................................                              ",
"........................................................................................................................................................................................................................................................................................................................................................................                              ",
"........................................................................................................................................................................................................................................................................................................................................................................                              ",
"........................................................................................................................................................................................................................................................................................................................................................................                              ",
"........................................................................................................................................................................................................................................................................................................................................................................                              ",
"........................................................................................................................................................................................................................................................................................................................................................................                              ",
"........................................................................................................................................................................................................................................................................................................................................................................                              ",
"........................................................................................................................................................................................................................................................................................................................................................................                              ",
"........................................................................................................................................................................................................................................................................................................................................................................                              "
};
