/* XPM */
static char *out[] = {
/* columns rows colors chars-per-pixel */
"31 31 45 1 ",
"  c #2B242E",
". c #2B252F",
"X c #2A2730",
"o c #27363F",
"O c #28323B",
"+ c #273740",
"@ c #263B44",
"# c #263C45",
"$ c #263F47",
"% c #25434C",
"& c #205B62",
"* c #1E676E",
"= c #1D6A70",
"- c #1D6A71",
"; c #1D6C73",
": c #1C6F75",
"> c #1B757B",
", c #1A797F",
"< c #1A7C82",
"1 c #197E84",
"2 c #17898F",
"3 c #168E93",
"4 c #169196",
"5 c #159297",
"6 c #159499",
"7 c #149B9F",
"8 c #12A3A7",
"9 c #11AAAE",
"0 c #0FB2B5",
"q c #0FB4B8",
"w c #0EB8BB",
"e c #0DBABD",
"r c #0DBDC0",
"t c #0CC3C6",
"y c #0BC9CB",
"u c #0ACBCD",
"i c #09D1D3",
"p c #09D3D5",
"a c #07DADC",
"s c #08D8DA",
"d c #04E9EA",
"f c #04ECED",
"g c #04EDEE",
"h c #03F0F0",
"j c cyan",
/* pixels */
",666666666666666666666664;@    ",
"ujjjjjjjjjjjjjjjjjjjjjjjjjje+  ",
"ujjjjjjjjjjjjjjjjjjjjjjjjjjjf% ",
"ujjjjjjjjjjjjjjjjjjjjjjjjjjjju.",
"ujjjjjjjjjjjjjjjjjjjjjjjjjjjjj-",
"ujjjjjjjjjjjjjjjjjjjjjjjjjjjjj7",
"5qqqqqqqqqqqqqqqqqqqqqqqijjjjjt",
"                        <jjjjju",
"                        <jjjjju",
"                        <jjjjju",
"                        <jjjjju",
"                        <jjjjju",
"     $*=================8jjjjjy",
"  X5fjjjjjjjjjjjjjjjjjjjjjjjjj9",
" Opjjjjjjjjjjjjjjjjjjjjjjjjjjj1",
" 0jjjjjjjjjjjjjjjjjjjjjjjjjjjg+",
"&jjjjjjjjjjjjjjjjjjjjjjjjjjjj: ",
"6jjjjjjjjjjjjjjjjjjjjjjjjjjh>  ",
"rjjjjjdaaaaaaaaaaaaaaaaasw3@   ",
"ujjjjj<                        ",
"ujjjjj<                        ",
"ujjjjj<                        ",
"ujjjjj<                        ",
"ujjjjj<                        ",
"ujjjjj2#######################o",
"ujjjjjjjjjjjjjjjjjjjjjjjjjjjjju",
"ujjjjjjjjjjjjjjjjjjjjjjjjjjjjju",
"ujjjjjjjjjjjjjjjjjjjjjjjjjjjjju",
"ujjjjjjjjjjjjjjjjjjjjjjjjjjjjju",
"ujjjjjjjjjjjjjjjjjjjjjjjjjjjjju",
"ujjjjjjjjjjjjjjjjjjjjjjjjjjjjju"
};
