/* XPM */
static char *out[] = {
/* columns rows colors chars-per-pixel */
"31 31 25 1 ",
"  c #66FF00",
". c #234D55",
"X c #205E65",
"o c #205E66",
"O c #1F636A",
"+ c #1D6A70",
"@ c #1D6D74",
"# c #1C6F75",
"$ c #1C7076",
"% c #1B777E",
"& c #1A7A80",
"* c #159499",
"= c #14979C",
"- c #0FB4B8",
"; c #0BC9CB",
": c #08D5D7",
"> c #08D7D9",
", c #08D8DA",
"< c #06E2E3",
"1 c #04EBEC",
"2 c #03EEEF",
"3 c #03F2F3",
"4 c #01FBFB",
"5 c #01FCFD",
"6 c cyan",
/* pixels */
"X***************************&  ",
"=66666666666666666666666666661.",
"=66666666666666666666666666666;",
"=666666666666666666666666666663",
"=66666666666666666666666666666:",
"=66666666666666666666666666665O",
"#-------------------<66666665% ",
"                   $46666665%  ",
"                  $46666665%   ",
"                 $46666665%    ",
"                $46666665%     ",
"               $46666665%      ",
"              $46666665%       ",
"             +46666665%        ",
"             26666665%         ",
"            o6666665%          ",
"            @666665%           ",
"            @66666,            ",
"            @66666>            ",
"            @66666>            ",
"            @66666>            ",
"            @66666>            ",
"            @66666>            ",
"            @66666>            ",
"            @66666>            ",
"            @66666>            ",
"            @66666>            ",
"            @66666>            ",
"            @66666>            ",
"            @66666>            ",
"            @66666>            "
};
