/* XPM */
static char *out[] = {
/* columns rows colors chars-per-pixel */
"31 31 65 1 ",
"  c #66FF00",
". c #244750",
"X c #244A52",
"o c #234D55",
"O c #225058",
"+ c #21555D",
"@ c #1F5F67",
"# c #1E646B",
"$ c #1E676E",
"% c #1D6A70",
"& c #1C6E74",
"* c #1C7279",
"= c #1B747A",
"- c #1B757B",
"; c #1B767C",
": c #1B777E",
"> c #50666D",
", c #67777E",
"< c #1A7B81",
"1 c #197D83",
"2 c #1A7C82",
"3 c #6E7D83",
"4 c #17888E",
"5 c #178B90",
"6 c #168E94",
"7 c #159499",
"8 c #15969B",
"9 c #14979C",
"0 c #14989D",
"q c #12A1A6",
"w c #11A7AB",
"e c #12A6AA",
"r c #0FB1B4",
"t c #0FB3B7",
"y c #0FB4B8",
"u c #0EB9BD",
"i c #0DBCBF",
"p c #0DBDC0",
"a c #0CBFC2",
"s c #0DBFC2",
"d c #0BC8CB",
"f c #0ACACC",
"g c #09CFD1",
"h c #09D2D4",
"j c #09D3D5",
"k c #07D9DB",
"l c #07DADC",
"z c #07DDDE",
"x c #06DFE1",
"c c #06E3E4",
"v c #05E4E6",
"b c #05E8E9",
"n c #03EEEF",
"m c #03F0F0",
"M c #03F0F1",
"N c #03F1F2",
"B c #02F3F4",
"V c #02F5F5",
"C c #02F6F6",
"Z c #01F8F8",
"A c #01FAFA",
"S c #01FBFB",
"D c #01FCFC",
"F c #01FCFD",
"G c cyan",
/* pixels */
"     @5777777777777777777:.    ",
"   8SGGGGGGGGGGGGGGGGGGGGGGkO  ",
"  gGGGGGGGGGGGGGGGGGGGGGGGGGA& ",
" 0GGGGGGGGGGGGGGGGGGGGGGGGGGGn ",
" SGGGGGGGGGGGGGGGGGGGGGGGGGGGGq",
"#GGGGGGGGGGGGGGGGGGGGGGGGGGGGGg",
"6GGGGGcyyyyyyyyyyyyyyyyypGGGGGV",
"9GGGGGr                 >GGGGGF",
"9GGGGGr                 >GGGGGF",
"9GGGGGr                 >GGGGGF",
"9GGGGGr                 >GGGGGF",
"9GGGGGr                 >GGGGGF",
"8GGGGGd%%%%%%%%%%%%%%%%%2GGGGGS",
"=GGGGGGGGGGGGGGGGGGGGGGGGGGGGGz",
" lGGGGGGGGGGGGGGGGGGGGGGGGGGGG;",
"  eBGGGGGGGGGGGGGGGGGGGGGGGGh$ ",
" <CGGGGGGGGGGGGGGGGGGGGGGGGGGf ",
"XSGGGGGGGGGGGGGGGGGGGGGGGGGGGGt",
"4GGGGGNlllllllllllllllllxGGGGGm",
"9GGGGGr                 >GGGGGF",
"9GGGGGr                 >GGGGGF",
"9GGGGGr                 >GGGGGF",
"9GGGGGr                 >GGGGGF",
"9GGGGGr                 >GGGGGF",
"9GGGGGu33333333333333333+GGGGGF",
"1GGGGGGGGGGGGGGGGGGGGGGGGGGGGGv",
"oGGGGGGGGGGGGGGGGGGGGGGGGGGGGGi",
" zGGGGGGGGGGGGGGGGGGGGGGGGGGGG-",
" +DGGGGGGGGGGGGGGGGGGGGGGGGGGs ",
"  *MGGGGGGGGGGGGGGGGGGGGGGGGa  ",
"   ,wjZGGGGGGGGGGGGGGGGGGbs:   "
};
