/* XPM */
static char *out[] = {
/* columns rows colors chars-per-pixel */
"31 31 51 1 ",
"  c #66FF00",
". c #25444C",
"X c #244750",
"o c #225058",
"O c #22525A",
"+ c #21555D",
"@ c #1F6067",
"# c #1E646B",
"$ c #1D6A70",
"% c #1C6E74",
"& c #1B747A",
"* c #1B767C",
"= c #1B777E",
"- c #1A797F",
"; c #465F66",
": c #50666D",
"> c #1A7C82",
", c #197F85",
"< c #6E7D83",
"1 c #178C91",
"2 c #168E94",
"3 c #159499",
"4 c #15969B",
"5 c #14979C",
"6 c #14989D",
"7 c #12A1A6",
"8 c #10ADB1",
"9 c #0FB1B4",
"0 c #0FB4B8",
"q c #0DBCBF",
"w c #0DBDC0",
"e c #0CBFC2",
"r c #0CC1C4",
"t c #0BC8CB",
"y c #0BC9CB",
"u c #09CFD1",
"i c #09D3D5",
"p c #07D9DB",
"a c #07DADC",
"s c #06DFE1",
"d c #06E3E4",
"f c #05E4E6",
"g c #05E8E9",
"h c #03EEEF",
"j c #02F4F4",
"k c #02F5F5",
"l c #01FAFA",
"z c #01FBFB",
"x c #01FCFC",
"c c #01FCFD",
"v c cyan",
/* pixels */
"     @1333333333333333333=X    ",
"   4zvvvvvvvvvvvvvvvvvvvvvvpo  ",
"  uvvvvvvvvvvvvvvvvvvvvvvvvvl% ",
" 6vvvvvvvvvvvvvvvvvvvvvvvvvvvh ",
" xvvvvvvvvvvvvvvvvvvvvvvvvvvvv7",
"#vvvvvvvvvvvvvvvvvvvvvvvvvvvvvu",
"2vvvvvd00000000000000000wvvvvvk",
"5vvvvv9                 :vvvvvc",
"5vvvvv9                 :vvvvvc",
"5vvvvv9                 :vvvvvc",
"5vvvvv9                 :vvvvvc",
"5vvvvv9                 :vvvvvc",
"4vvvvvt$$$$$$$$$$$$$$$$$>vvvvvc",
"&vvvvvvvvvvvvvvvvvvvvvvvvvvvvvc",
".vvvvvvvvvvvvvvvvvvvvvvvvvvvvvc",
" yvvvvvvvvvvvvvvvvvvvvvvvvvvvvc",
" ;jvvvvvvvvvvvvvvvvvvvvvvvvvvvc",
"  Oavvvvvvvvvvvvvvvvvvvvvvvvvvc",
"    ,8iaaaaaaaaaaaaaaaaasvvvvvc",
"                        :vvvvvc",
"                        :vvvvvc",
"                        :vvvvvc",
"                        :vvvvvc",
"                        :vvvvvc",
" <<<<<<<<<<<<<<<<<<<<<<<+vvvvvc",
"5vvvvvvvvvvvvvvvvvvvvvvvvvvvvvf",
"5vvvvvvvvvvvvvvvvvvvvvvvvvvvvvq",
"5vvvvvvvvvvvvvvvvvvvvvvvvvvvvv*",
"5vvvvvvvvvvvvvvvvvvvvvvvvvvvve ",
"5vvvvvvvvvvvvvvvvvvvvvvvvvvvr  ",
"5vvvvvvvvvvvvvvvvvvvvvvvvge-   "
};
