/* XPM */
static char *_155ca4326654ff6a8c870a6176f7146yZNzYvxPA8JC5sn9[] = {
/* columns rows colors chars-per-pixel */
"64 64 10 1 ",
"  c #2B242E",
". c #2B3841",
"X c #1DBDC0",
"o c #24979B",
"O c #2B232D",
"+ c #2B4A53",
"@ c #1DBCBF",
"# c #25898E",
"$ c #24979C",
"% c #17E3E5",
/* pixels */
"+#$oooooooooooooooooooooooooooooooooooooooooooooooooooooooooo$#+",
"#%X@XXXXXXXXXXXXXXXXXXXXXXXXXXXXXXXXXXXXXXXXXXXXXXXXXXXXXXXXXX%#",
"$X+..........................................................+X$",
"o@.OOOOOOOOOOOOOOOOOOOOOOOOOOOOOOOOOOOOOOOOOOOOOOOOOOOOOOOOOO.@o",
"oX.O                                                        O.Xo",
"oX.O                                                        O.Xo",
"oX.O                                                        O.Xo",
"oX.O                                                        O.Xo",
"oX.O                                                        O.Xo",
"oX.O                                                        O.Xo",
"oX.O                                                        O.Xo",
"oX.O                                                        O.Xo",
"oX.O                                                        O.Xo",
"oX.O                                                        O.Xo",
"oX.O                                                        O.Xo",
"oX.O                                                        O.Xo",
"oX.O                                                        O.Xo",
"oX.O                                                        O.Xo",
"oX.O                                                        O.Xo",
"oX.O                                                        O.Xo",
"oX.O                                                        O.Xo",
"oX.O                                                        O.Xo",
"oX.O                                                        O.Xo",
"oX.O                                                        O.Xo",
"oX.O                                                        O.Xo",
"oX.O                                                        O.Xo",
"oX.O                                                        O.Xo",
"oX.O                                                        O.Xo",
"oX.O                                                        O.Xo",
"oX.O                                                        O.Xo",
"oX.O                                                        O.Xo",
"oX.O                                                        O.Xo",
"oX.O                                                        O.Xo",
"oX.O                                                        O.Xo",
"oX.O                                                        O.Xo",
"oX.O                                                        O.Xo",
"oX.O                                                        O.Xo",
"oX.O                                                        O.Xo",
"oX.O                                                        O.Xo",
"oX.O                                                        O.Xo",
"oX.O                                                        O.Xo",
"oX.O                                                        O.Xo",
"oX.O                                                        O.Xo",
"oX.O                                                        O.Xo",
"oX.O                                                        O.Xo",
"oX.O                                                        O.Xo",
"oX.O                                                        O.Xo",
"oX.O                                                        O.Xo",
"oX.O                                                        O.Xo",
"oX.O                                                        O.Xo",
"oX.O                                                        O.Xo",
"oX.O                                                        O.Xo",
"oX.O                                                        O.Xo",
"oX.O                                                        O.Xo",
"oX.O                                                        O.Xo",
"oX.O                                                        O.Xo",
"oX.O                                                        O.Xo",
"oX.O                                                        O.Xo",
"oX.O                                                        O.Xo",
"oX.O                                                        O.Xo",
"o@.OOOOOOOOOOOOOOOOOOOOOOOOOOOOOOOOOOOOOOOOOOOOOOOOOOOOOOOOOO.@o",
"$X+..........................................................+X$",
"#%X@XXXXXXXXXXXXXXXXXXXXXXXXXXXXXXXXXXXXXXXXXXXXXXXXXXXXXXXX@X%#",
"+#$oooooooooooooooooooooooooooooooooooooooooooooooooooooooooo$#+"
};
