/* XPM */
static char *_51366be0e314e988f50cbe000759bd2FWTMlzdvKRh7iRaq[] = {
/* columns rows colors chars-per-pixel */
"64 64 179 2 ",
"   c #66FF00",
".  c #66FF00",
"X  c #66FF00",
"o  c #66FF00",
"O  c #66FF00",
"+  c #66FF00",
"@  c #66FF00",
"#  c #66FF00",
"$  c #66FF00",
"%  c #66FF00",
"&  c #66FF00",
"*  c #66FF00",
"=  c #66FF00",
"-  c #66FF00",
";  c #66FF00",
":  c #66FF00",
">  c #66FF00",
",  c #66FF00",
"<  c #66FF00",
"1  c #66FF00",
"2  c #66FF00",
"3  c #66FF00",
"4  c #66FF00",
"5  c #66FF00",
"6  c #66FF00",
"7  c #66FF00",
"8  c #66FF00",
"9  c #66FF00",
"0  c #66FF00",
"q  c #66FF00",
"w  c #66FF00",
"e  c #66FF00",
"r  c #66FF00",
"t  c #66FF00",
"y  c #66FF00",
"u  c #66FF00",
"i  c #66FF00",
"p  c #66FF00",
"a  c #66FF00",
"s  c #66FF00",
"d  c #66FF00",
"f  c #66FF00",
"g  c #66FF00",
"h  c #66FF00",
"j  c #66FF00",
"k  c #66FF00",
"l  c #66FF00",
"z  c #66FF00",
"x  c #66FF00",
"c  c #66FF00",
"v  c #66FF00",
"b  c #66FF00",
"n  c #66FF00",
"m  c #66FF00",
"M  c #66FF00",
"N  c #66FF00",
"B  c #66FF00",
"V  c #66FF00",
"C  c #66FF00",
"Z  c #66FF00",
"A  c #66FF00",
"S  c #66FF00",
"D  c #66FF00",
"F  c #66FF00",
"G  c #66FF00",
"H  c #66FF00",
"J  c #66FF00",
"K  c #66FF00",
"L  c #66FF00",
"P  c #66FF00",
"I  c #66FF00",
"U  c #66FF00",
"Y  c #66FF00",
"T  c #66FF00",
"R  c #66FF00",
"E  c #66FF00",
"W  c #66FF00",
"Q  c #66FF00",
"!  c #66FF00",
"~  c #66FF00",
"^  c #66FF00",
"/  c #66FF00",
"(  c #66FF00",
")  c #66FF00",
"_  c #66FF00",
"`  c #66FF00",
"'  c #66FF00",
"]  c #66FF00",
"[  c #66FF00",
"{  c #66FF00",
"}  c #66FF00",
"|  c #66FF00",
" . c #66FF00",
".. c #66FF00",
"X. c #66FF00",
"o. c #66FF00",
"O. c #66FF00",
"+. c #66FF00",
"@. c #66FF00",
"#. c #66FF00",
"$. c #298A80",
"%. c #2D8E8A",
"&. c #318B88",
"*. c #2C928C",
"=. c #289692",
"-. c #2C9993",
";. c #299D9B",
":. c #339997",
">. c #399D90",
",. c #319A9A",
"<. c #339593",
"1. c #2BA09F",
"2. c #2AA8A7",
"3. c #2BA9A8",
"4. c #34A7A6",
"5. c #2DB1AE",
"6. c #2CB4B3",
"7. c #2DBEBC",
"8. c #36B2B0",
"9. c #39B6B4",
"0. c #31BBBA",
"q. c #3ABCBB",
"w. c #3AB9B6",
"e. c #2EC0BC",
"r. c #30C1BE",
"t. c #3BC1BD",
"y. c #6DDE9E",
"u. c #73DF9B",
"i. c #79E28E",
"p. c #7BE292",
"a. c #73E09A",
"s. c #76E291",
"d. c #4DD5BC",
"f. c #54D6B7",
"g. c #5BD9B5",
"h. c #52D6BB",
"j. c #50DABC",
"k. c #67DCA7",
"l. c #6ADDA2",
"z. c #66DFA8",
"x. c #2FC3C1",
"c. c #31C4C1",
"v. c #3BC5C2",
"b. c #34CAC5",
"n. c #3DCFC6",
"m. c #37CDCA",
"M. c #3DCFC9",
"N. c #3DD0C6",
"B. c #37D1CB",
"V. c #3DD1C9",
"C. c #3FD0C8",
"Z. c #3ED0C8",
"A. c #3DD0CB",
"S. c #3ED1CA",
"D. c #3AD0CD",
"F. c #3CD1CD",
"G. c #3FD6CE",
"H. c #3DD2C9",
"J. c #3FD9CE",
"K. c #37D6D0",
"L. c #3DD6D1",
"P. c #3CD8D1",
"I. c #40CFC9",
"U. c #46D2C2",
"Y. c #41D0C6",
"T. c #47D3C5",
"R. c #45D2C5",
"E. c #49D2C2",
"W. c #4AD5C2",
"Q. c #4DD6C1",
"!. c #49D5C4",
"~. c #41D1C8",
"^. c #40D6CD",
"/. c #41D8CD",
"(. c #42DAD1",
"). c #66FF00",
"_. c #66FF00",
"`. c #66FF00",
"'. c #66FF00",
/* pixels */
"..................................~ ..} }  .| #.[ )._.p.u.u.y.l.l.l.l.y.y.y.a.p.).#.o. .} } ..~ ....................X.X.....X...",
"................................}  .{ ).p.g.W.W.W.E.E.E.E.E.U.U.E.U.E.E.E.E.E.!.!.Q.Q.g.u.).]  .} ..............................",
"........................} } | [ a.h.R.R.Y.H.D.D.D.M.M.M.M.M.M.H.M.M.M.M.M.M.H.H.F.D.D.F.Y.E.Q.h.l.).| ....~ ....................",
"....................} | _ l.W.U.R.H.M.H.H.N.Y.N.N.n.n.n.N.N.N.N.Y.N.N.N.n.H.H.~.~.Y.Y.Y.H.H.H.H.Y.E.d.k.`  .} ~ ....X...........",
"................} ( s.h.U.Y.H.B.H.N.N.N.N.N.N.N.n.n.n.n.N.N.N.N.N.N.N.N.N.H.~.~.H.H.H.H.N.N.Y.N.N.H.H.~.W.h.i.| ....~ ..........",
"............} ( i.d.R.M.M.N.N.N.N.N.N.N.N.N.N.N.n.n.n.N.N.N.N.N.N.N.n.N.N.N.N.H.N.N.N.n.n.N.N.n.n.N.N.H.H.H.U.f.p.#.....~ ......",
"........} ' y.d.U.M.M.n.N.N.n.N.N.N.N.N.N.N.N.n.n.n.n.n.n.n.N.N.n.n.n.n.n.n.n.N.N.n.n.n.N.n.n.n.n.N.n.N.N.N.H.H.R.Q.k.{ } ......",
"....} | y.d.Y.M.M.n.n.n.n.N.N.N.N.N.N.N.N.N.n.n.n.n.n.n.n.n.n.n.n.n.n.n.n.n.n.n.n.n.n.n.n.n.n.n.N.n.n.n.N.H.N.N.H.F.~.W.z. .~ ..",
"..~ ] j.H.M.n.n.n.N.N.N.N.N.N.N.N.N.N.N.N.n.n.n.n.n.n.n.n.n.n.n.N.N.N.n.n.N.N.n.n.n.N.N.n.n.N.N.N.N.n.N.N.N.H.N.N.H.H.L./.' ~ ..",
"..~ ) t.m.N.N.n.N.N.N.N.N.N.N.N.N.N.N.N.N.n.N.N.n.n.n.n.n.n.n.n.N.N.N.N.N.N.N.n.n.n.n.n.n.n.N.N.N.N.N.N.N.N.N.N.N.H.G.M.>.G W ..",
"..~ V 3 e.G.N.N.N.N.n.n.N.N.N.N.N.N.N.n.n.n.N.n.n.n.n.n.n.n.n.N.n.N.N.N.N.n.N.n.n.n.n.n.n.n.n.n.N.N.N.N.N.N.N.N.H.B.(.t.X F +...",
"! / P y -.B.N.N.n.n.n.n.n.N.n.n.N.n.n.n.n.n.n.n.n.n.n.n.n.n.n.n.n.n.n.n.n.n.n.n.n.n.n.n.n.n.n.n.N.N.n.n.n.N.H.H.H.H.H.&.b W ....",
"..../ L > 6.G.N.M.n.n.N.N.n.n.N.n.n.n.n.n.n.n.n.n.n.n.n.n.n.n.n.n.n.n.n.n.n.n.n.n.n.n.n.n.n.n.n.n.n.n.n.N.N.H.H.H./.q., F @.....",
"....+.W a j B.H.N.N.N.N.n.N.N.N.N.n.n.n.n.n.n.N.N.N.n.n.n.N.N.N.N.N.n.n.n.n.n.n.n.n.n.n.n.n.n.N.n.N.N.N.N.N.H.H.H.^.j b T ......",
"....../ U + 6.G.N.N.n.n.N.N.N.N.N.N.N.n.n.n.N.N.N.N.N.N.N.n.n.N.N.n.n.N.N.N.n.n.n.n.n.n.n.n.n.n.N.N.N.N.N.H.H.H.^.q.t K / ! ....",
"......~ ^ n 0 b.H.n.M.n.N.N.N.N.N.N.n.n.n.n.n.n.n.n.N.N.n.n.n.n.n.n.n.N.n.n.n.n.n.n.n.n.n.n.n.n.N.N.N.N.H.H.H.G.M.w m W ~ ......",
"......../ P $ 5.G.B.B.N.N.N.N.N.N.N.n.n.n.N.n.n.n.n.n.n.n.n.n.n.n.n.n.N.n.n.n.n.n.n.n.n.n.n.n.n.N.N.N.N.H.H.H.^.q.t J ~ ........",
"..........~ Z 8 c.H.N.N.N.N.N.N.N.n.n.N.N.n.n.n.N.n.n.n.n.n.n.n.n.N.N.N.n.n.n.n.n.n.n.n.n.n.n.N.N.N.N.N.H.H.G.M.w B W ..........",
"..........@.! & 1.G.B.N.N.N.N.N.N.N.N.N.N.N.N.N.N.N.n.n.n.n.n.N.N.N.N.N.N.N.n.n.n.n.n.n.n.n.N.N.N.N.N.H.H.H.J.9.* K @.....X.....",
"............~ S 6 7.G.n.N.N.N.N.N.N.N.N.N.N.N.N.N.N.N.N.n.n.N.N.N.N.N.N.N.n.n.n.n.n.n.n.n.N.N.N.N.N.N.H.H.G.M.q B W ............",
"..............! s e b.B.N.N.H.N.N.N.N.N.N.N.N.N.N.N.N.n.n.n.N.N.N.N.N.N.n.n.n.n.n.n.n.n.N.n.n.N.N.N.H.H.H.H.4.l Y ~ ............",
"............../ J . 6.G.M.n.N.N.N.N.N.N.N.N.N.N.N.N.N.n.N.N.N.N.N.N.N.N.n.n.n.n.n.n.n.N.n.n.N.N.N.N.H.M.G.v.< C ! ..............",
"................! n 0 b.H.N.N.N.N.N.N.N.N.N.N.N.N.N.N.N.N.N.N.N.N.N.N.N.N.N.N.N.n.n.N.N.n.N.N.N.N.H.H.H.H.,.c I ~ ..............",
"................@.T # 2.G.N.H.N.N.N.N.N.N.N.N.N.N.N.N.N.N.N.N.N.N.N.N.N.N.N.N.N.N.N.N.N.N.N.N.N.N.H.H.(.t., F ^ ! ..............",
"................~ ! N 8 x.G.M.H.N.N.N.N.N.N.N.N.N.N.N.N.N.N.N.N.N.N.N.N.N.N.N.N.N.N.N.N.N.N.N.H.N.H.H.^.:.s Y ....o.............",
"..................@.! y =.G.H.H.H.H.N.N.N.N.N.N.N.N.N.N.N.N.N.N.n.N.N.N.n.n.N.N.N.N.N.N.N.N.N.N.B.B.^.q., F ! ....X.............",
"..................../ D X 0.G.N.H.N.N.N.N.N.N.N.N.N.N.N.N.N.N.N.N.N.N.N.N.N.N.N.N.N.N.N.N.N.H.H.B.G.G.r d W ~ ..................",
"..................~ / ^ g j b.H.N.N.N.N.N.N.N.N.N.N.N.N.N.N.N.N.N.N.N.N.N.N.N.N.N.N.N.N.N.N.H.B.B.^.q.o F ! ~ ..X...............",
"....................../ Y . 6.P.n.H.N.N.N.N.N.N.N.N.N.N.n.n.N.N.N.N.n.N.N.N.N.N.N.N.N.N.N.N.H.H.H.n.j b W ~ ~ ..................",
"........................^ M 0 c.G.N.H.N.N.N.N.N.N.N.N.n.n.n.N.N.n.n.N.N.N.N.N.N.N.N.N.N.N.N.H.H./.w.o J / ......................",
"........................@.T % 1.P.B.n.N.N.N.N.N.N.N.N.n.n.n.N.n.n.n.N.N.n.n.N.N.N.N.N.N.N.M.M.H.n.j m W ~ ......................",
"..........................! N 5 7.G.n.B.N.N.N.N.N.N.n.n.N.N.N.n.n.N.N.n.n.N.N.N.N.N.N.N.N.N.N.J.8.o P / ! ......................",
"..........................~ W y k B.H.N.B.N.N.N.N.N.N.N.N.N.N.N.N.N.n.n.N.N.N.N.N.N.N.N.N.n.H.M.w b W ..........................",
"............................~ F . 6.G.n.H.N.N.N.N.N.N.N.n.n.N.N.N.n.n.n.N.N.N.N.N.N.N.N.N.N.~.,.* K ~ ..........................",
"..............................^ h 9 c.G.n.N.N.n.N.N.N.n.n.n.N.N.n.n.n.n.n.n.N.N.N.N.N.N.n.^.v.3 N W ! ..........................",
"............................../ Y $ 3.L.B.N.N.N.N.N.N.N.N.N.N.n.n.N.N.N.n.N.N.N.N.N.N.H.H.H.,.x Y ..............................",
"................................! V 7 r.G.B.N.N.N.N.N.N.N.N.N.N.N.N.N.N.N.N.N.N.N.N.B.H.G.t.; A ~ ..............................",
"................................@.W & ;.K.H.B.N.N.N.N.N.N.N.N.N.N.N.N.N.N.N.N.N.N.N.H.H.G.,.i Y ................................",
"..................................~ S 2 7.G.B.B.B.H.N.N.N.N.N.N.N.N.N.N.N.N.N.N.N.N.M.J.t.< D ~ ................................",
"..................................@.^ a e m.H.n.B.H.N.N.N.N.N.N.N.N.N.N.N.N.N.N.N.n.H.(.*.i E ......o...........................",
"..................................../ F O 6.L.n.H.H.H.N.N.N.N.N.N.N.N.N.N.N.N.H.H.N.H.q.1 F ! ! ....o...........................",
"......................................! g 0 b.H.N.H.H.N.N.N.N.N.N.N.N.N.N.N.H.H.H.G.^.w v W ~ ~ ................................",
"......................................@.Y # 2.P.n.H.H.N.N.N.N.N.N.N.N.N.N.N.H.H.B.^.q., J / ! ..................................",
"........................................! M 8 b.G.B.N.N.N.N.N.N.n.n.N.N.N.N.H.H.G.v.w m W ~ ....................................",
"..........................................W u -.B.B.H.N.N.N.N.N.N.N.N.N.N.H.H.H.(.9.. K / ......o...............................",
"..........................................~ S > 7.G.B.H.N.N.N.N.N.N.N.N.N.H.H.G.n.w n W ~ ..................................o.o.",
"............................................T d -.B.B.N.H.H.H.N.N.N.N.H.H.H.H./.4.* Y ~ ! ~ ..............................o.o...",
"....................................o.o.X...~ Y t 3.G.B.H.H.H.N.N.N.N.H.H.H.G.n.0 B W ~ ....o...................................",
"....................................o.o.X.X...~ h 7 m.^.M.H.H.N.n.H.H.M.M.H.G.,.= Y ~ ....o.o...................................",
"....................................o.o.o.X...~ Y - 1.B.N.H.H.H.N.H.H.M.M.^.v.4 N ! ~ ....o.....................................",
"..................................o.X.X...X...../ D < 0.^.N.H.N.H.H.H.H.H.H.,.z Y ~ ......o.o...................................",
"o.......X...........................o.o.o.X.....@.W p *.B.B.N.N.N.H.H.H.^.v.; A / ......o.o.o...o.o.o.o.........................",
"o...................................o.o.o.X.X.X...~ J o 6.P.N.N.H.M.H.H.H.,.z Y ~ ..............o.o.o.o.....................o.X.",
"o...................................o.o...X...X...@.! f j b.H.H.I.H.H.^.v.< A ~ ! ....o.o.o.o.....o.o.o.....................o.X.",
"o...................................................~ Y . ;.G.H.H.H.F.H.<.c Y ~ ! ..o.o.o.o.o.....o.o.o...................X.X.X.",
"..................X.......................o.o.X.......! h 7 b.^.H.H.^.t.< H ^ ! ! ......o.....o.o.o.o.o...............X.X.X.X.X.",
"o.......X.X.............................o.o.o.o.......~ W - ;.F.H.^.H.%.c E ~ ! ....o.......o.o.o.o.o.o.............X.X.X.o.X.X.",
"o.....X.X.o...........................o.o.o.o...........! A > 0.^.^.q.> F ~ ! ......o.o...o.o.o.o.o.o.o...........X.X...X.X.X.X.",
"o.o...X.X.X...........................o.o.o.o.............W a %.D.H.%.c W ..........o.o.o...o.o.o.o.o.o.....o.....X.o.....X.o.o.",
"........X.X...........................o.o.o.o.X...........~ L , 0.v.: F ~ ......o.o.o.o.o.o.o.o.o.o.o.o.o.o.o.o.......o.`.o...o.",
"........X.............................o.o.o.o.X.X...........! f w w b W ........o.o.o.o.o.o.o.o.o.o.o.o.o.o.o.o.o.....`.'.`...X.",
"o.......o.o.................o.o.o.o.o.o.o.o.o.o.o.X.o.o.....~ R @   P ~ ....o.o.o.o.o.o.o.o.o.o.o.o.o.o.o.o.o.o.o.o...o.`.o.o.X.",
"o.........................o.o.o.o.o.o.o.o.o.o.o.o.o.o.........! Z N Q ..........o.o.o.o.o.o.o.o.o.o.o.o...o.o.o.o.o.o.o.....X.X.",
"........o...............o.o.o.o.o.o.o.o.o.o.o.o.o.o.............~ ! ~ ..........o.o.....o.o.o.o.o...o.......o.o.o.o.o.o.o.o.X.X."
};
