/* XPM */
static char *out[] = {
/* columns rows colors chars-per-pixel */
"64 64 255 2 ",
"   c #000000",
".  c #01000B",
"X  c #0C0209",
"o  c #170509",
"O  c #020014",
"+  c #080515",
"@  c #01021B",
"#  c #0B001C",
"$  c #160517",
"%  c #161313",
"&  c #2E0510",
"*  c #030124",
"=  c #0C0024",
"-  c #060429",
";  c #170328",
":  c #0E1428",
">  c #020134",
",  c #060838",
"<  c #160337",
"1  c #061535",
"2  c #24052B",
"3  c #310D2C",
"4  c #260239",
"5  c #330139",
"6  c #21292B",
"7  c #450811",
"8  c #490535",
"9  c #580534",
"0  c #740A34",
"q  c #593021",
"w  c #655E29",
"e  c #050548",
"r  c #170446",
"t  c #05065B",
"y  c #16045B",
"u  c #051552",
"i  c #290248",
"p  c #380147",
"a  c #270458",
"s  c #360257",
"d  c #231954",
"f  c #0A2B54",
"g  c #38234B",
"h  c #090565",
"j  c #180266",
"k  c #031567",
"l  c #050675",
"z  c #160376",
"x  c #021472",
"c  c #041877",
"v  c #270267",
"b  c #330C6A",
"n  c #2B0374",
"m  c #380376",
"M  c #092E70",
"N  c #093575",
"B  c #2B2575",
"V  c #54064F",
"C  c #49025A",
"Z  c #6A0653",
"A  c #642B4E",
"S  c #470366",
"D  c #580369",
"F  c #490475",
"G  c #520876",
"H  c #6D0371",
"J  c #0D4473",
"K  c #656470",
"L  c #96202C",
"P  c #E0341D",
"I  c #EC0F2C",
"U  c #D23028",
"Y  c #E32C24",
"T  c #A26424",
"R  c #D4581C",
"E  c #E2571C",
"W  c #DA661E",
"Q  c #CD4C26",
"!  c #8F0652",
"~  c #A91047",
"^  c #8E0572",
"/  c #AC096F",
"(  c #F2044E",
")  c #D10C6E",
"_  c #EB056C",
"`  c #DD2762",
"'  c #B16F58",
"]  c #D55B52",
"[  c #77DF0A",
"{  c #64F108",
"}  c #959F26",
"|  c #D79521",
" . c #9BDF09",
".. c #B1E40A",
"X. c #D1D90E",
"o. c #929259",
"O. c #060489",
"+. c #170387",
"@. c #070599",
"#. c #0C169C",
"$. c #290588",
"%. c #3A028B",
"&. c #330B92",
"*. c #083989",
"=. c #0E3296",
"-. c #292C92",
";. c #0706A6",
":. c #1805AD",
">. c #0B05BA",
",. c #2E05AF",
"<. c #0628AF",
"1. c #2F2CB1",
"2. c #480288",
"3. c #57048A",
"4. c #530895",
"5. c #6A048F",
"6. c #75038B",
"7. c #760396",
"8. c #4E03AD",
"9. c #6905A5",
"0. c #6A03B6",
"q. c #730DB4",
"w. c #582DA3",
"e. c #084284",
"r. c #0B48B0",
"t. c #0557B9",
"y. c #0C6FB2",
"u. c #525AA4",
"i. c #1208CF",
"p. c #3308CE",
"a. c #2B06D5",
"s. c #0A26CE",
"d. c #2E2ACE",
"f. c #0B11ED",
"g. c #0603F8",
"h. c #0C01F9",
"j. c #1703F7",
"k. c #0618F8",
"l. c #1716F7",
"z. c #2B0AEB",
"x. c #3907E8",
"c. c #2303F5",
"v. c #2908F6",
"b. c #2301F8",
"n. c #3807F6",
"m. c #3401F8",
"M. c #2B17F6",
"N. c #3519F7",
"B. c #0425E9",
"V. c #0536EA",
"C. c #0625F7",
"Z. c #132AF1",
"A. c #0433F9",
"S. c #0839F8",
"D. c #1937F6",
"F. c #2827E9",
"G. c #3025F3",
"H. c #5604C9",
"J. c #4A04D8",
"K. c #500ED1",
"L. c #7903CA",
"P. c #7802D9",
"I. c #7214D0",
"U. c #5128D5",
"Y. c #6C29D0",
"T. c #4905E5",
"R. c #5803E8",
"E. c #4D17EF",
"W. c #4803F7",
"Q. c #5705F7",
"!. c #6903E8",
"~. c #7703E8",
"^. c #6E17EF",
"/. c #6701F9",
"(. c #7701F8",
"). c #4839EE",
"_. c #6E25EE",
"`. c #0F53CD",
"'. c #2E54D8",
"]. c #0C6FD4",
"[. c #054AEA",
"{. c #1053EE",
"}. c #0647F7",
"|. c #1A49F4",
" X c #0656F7",
".X c #2C4FF0",
"XX c #0767EA",
"oX c #0776E8",
"OX c #1670ED",
"+X c #0767F6",
"@X c #036AF8",
"#X c #0775F5",
"$X c #027AF9",
"%X c #2766EC",
"&X c #4D54D5",
"*X c #4A48EE",
"=X c #93048C",
"-X c #8B0393",
";X c #AF0891",
":X c #B6368C",
">X c #8F06A8",
",X c #8806B7",
"<X c #9404B9",
"1X c #AD04B2",
"2X c #D7068F",
"3X c #EB018E",
"4X c #F20192",
"5X c #D901A9",
"6X c #C902B5",
"7X c #E900AE",
"8X c #F500B7",
"9X c #8703C7",
"0X c #9705C8",
"qX c #920FCF",
"wX c #8802D6",
"eX c #A602C6",
"rX c #AD01DA",
"tX c #B604D3",
"yX c #8F25DB",
"uX c #8604E8",
"iX c #9400EA",
"pX c #8F15EB",
"aX c #8600F7",
"sX c #9701F5",
"dX c #A802E8",
"fX c #B501EA",
"gX c #A900F5",
"hX c #BA00F4",
"jX c #CA07C6",
"kX c #D501C5",
"lX c #CA01D5",
"zX c #D800D7",
"xX c #F500C8",
"cX c #EC00D3",
"vX c #C800E7",
"bX c #CA00F3",
"nX c #D600F0",
"mX c #EB00EC",
"MX c #E600F0",
"NX c #0C83B0",
"BX c #0D93DA",
"VX c #128DED",
"CX c #0593EB",
"ZX c #139AE5",
"AX c #0785F6",
"SX c #0189F9",
"DX c #0697F5",
"FX c #009BF9",
"GX c #0CA7E9",
"HX c #02A6F6",
"JX c #04ADF3",
"KX c #02B3F5",
"LX c #02B8F7",
"PX c #01C6F8",
"IX c #01D3FB",
/* pixels */
"                                                                                                                                ",
"                                                                                X o           X % & & & % o + $                 ",
"X g K ' ..} o.} } } w q } K 6 .     ;                           ` ..{ { { {  ...X.| w.B.[.XXvX2X7XkXkXzXzXjXeXL.T.XXoXoXoXCXGXGX",
"X                 .     O > + , - O                             S.}.}.[._.4X( I I I q. X#Xs.( _ 3X8XxXbXfXaXQ.h.}.@XoX$XSXJXJXJX",
"                                                                S.f.c.m.T.R.L.0X5X5XH / 9 C V s m d.d.I.Y.5.6.=XH < X : . + > + ",
"                                                                E.E.L.9X>X1X1X0X0XwXH 4.O X - . @ b .   4.D =X=X;X7.G C ,.p.a.x.",
"* . O                                   e                       S.V.k.j.n.m.W.W.W.W.m.m.j j v i h @.t t z O y - r t e e +.O.i.:.",
"r .                                     X                       HXFXFXFXFXSX$X X}.k.g.h.h.j.b.j.B.}.B.g.#                       ",
"<                                                               FXFXFXFXSX$X XS.Z.h.b.j.c.m.m.m.l.z.l.c.                        ",
"                                                                1X1XtXO                   : N y.t.y.t.`.t.`.t.`.t.t.`.`.r.<.r.t.",
"                                                                mXmXmX& $ & o o & % o % % ; 6 VX].#XoXD.G.I.q.w.B G 3.^ -X6.6.H ",
".     X                                                         U.qX,XR.L.L.eX0X5X) ` ` ` / 0XY.W o.<X#XSXDXLXKXZXLXPXPXLXGXJXIX",
"< v z r M .   .                                                 ;X_ 3XQ./.aXsXvXcX2X~ ^ ^ -X9.| } K H AXSXCXPXPXIXIXIX# y.PXPXPX",
"                                                                bXnXgX^.Q.(.(.dXgX0.            X   : i C 8 ,X9.,XwXP.L.0X9X9.$.",
"                                                                gXgXgXMXcXcXcXtXE.HXKXHXHXFX#X X}.B.f.e &.-.m S u &.< : @ - u 1 ",
"e G 9.7.S 6.C < s                                               lXkX5XlXkX=X;X/ / q A u.-.w.1.s.<.s.>.;.M M t B B g 2 + .       ",
"> ;       .                                                     zXxX8X6XtXs %XOX#XoXAXVXDXDXAX#X$XAXDXDXOXHXVXPXPX0.H 1X).GXLXLX",
"    X         .                                                 tXxX8XpXlXi VXDXDXHXJXDXHXHXVXGXCXVXAX#X#XVX.XDXAX,X$ 6.-.LXu.PX",
"          X                                                     ^ / / / =X5 Z.V.|.{.+X@X XSXXX#X#X#XOXDXDXOX'.[.C.,XA.B.B.A.AXGX",
"; ;       q L 7.=X,XP.H 0.0.4 X H 3 i p %.n m                   bXiXvXvX5X    d 1 ; X : % 2 i 5 3 * $ a o 2 4 S i 4 H 9 9 / 2X! ",
"8.7.,.    X   o . r ; = < S s C C 5 V p < 2.;X2.wX$             5XE I 0.9X; # 4.2.9.a.T.x.T.E.G.F.[.[.[.d.F.~.R.~.wXP.!.uXuXP.!.",
"H.    C s           @ 2 2 G V g             2 X   =             7.( 3X^.sX/.W.$.=.N !.~.aX~.P.0X9XwXR.U.E.~.0XpXsXwXL.P.wX~.].VX",
"2 = m #   = = . @ ; < $ + < m $ O   . X . . ; # O X             ;X/ 6Xv.W.U.1.d.U.y j 9.9XqX2.G -X,X9.0.2.8.F 4.V X     O       ",
"      7.! -X>X1X<X,X3.F C D < B v < < F : a 3 &.v               S.C.h.S.l.S.Z.G.Q., - 1     X   @ 5.P.eXqXI.I.>XU.1XF.'.G..X[..X",
"      q ( _ _ _ ) 2X_ 7X2X) -XZ Z b & C D V V ! Z                XC.c.A.c.m.Q.W.W.W.n.m.a.p.a.H.p.i.z.z.U.T.z.d.S.<X|.#XZ.{.@X$X",
"< i D g B F F 2.3.s 8 3 3 V p 2 a $   i r i a m F               <.0.0.1.8.8.8.L.,XH.<X0XwXG m n S m &.H m n $.%.m aXZ.A.M.m.c.b.",
"              .                                                 .                                                 O   X + g $ % ",
"        . + a G 5.7.Z V o                                       N.W.x.E.aXrX5X) I I Y Y X   .   .   .   X   .     & = # s C V 5 ",
"        < < p p p F s                                           c c l x j n m m F F m       z /.aXaXW.h.g.g.g.A.}.SXKXKX.XgXsXQ.",
"                                                                    X                                               .         O ",
"                                                                                            Q ] | R R R R Q R E P R U W U U Q Q ",
"                                                                                                  V r   *   X     O     . - ; 3 ",
"7 7 7 7 7 7 & 7 & & & T T T T X                                 Y P E | E I I I E R R | X.[  .                                  ",
"                  . 8 # 2 Z Z S V D                             vXgXaX(.aXgXlX7XlXaXaXsXlXkX4X( I I                             ",
"                                                                      X                       X                                 ",
"@ O * < ; = ; > # $ ; # $ $ o $ $ $ @ @ @ O @ @ @ O O O O O O O MXzX4XDXSX+XA.c.aXbXMXMXmX_ Y Y I $ + @ @           $ ; 2 - O   ",
"0.L.L.J.I.0.L.8.m S D 9 9 0 0 0 0 C x x x x x x M x x x x x c x l.N.N.^.N.n.n.b.b.m.T.H.H.H.R.R.n.z x ,.fXfXgXaX(.Q.W.m.k.C.l. X",
"F.K.U.].&X'.'.'.'.].{.XX%X'.tXfXfXrXrXdXrXdXuX!.R.x.x.T.x.T.T.R.W.W.W.~.(./.Y.i         .                                       ",
".   O O                                                         ^.pXI.!.0XqX/ 3 e d , : 2 . O . # i i . O   X   X   .   . .   . ",
"<   * . O . * j 4 i X . + 4 2         >                         l.A.C.Q.N.~.:X~././.~.iXR.wXN.v.Q.qXlX4X4X4X4X4X3X4XY.Y.G.C.A.l.",
"    8 b eX1XH 6.=X2.2.G v m v   r 5                             }. XD.wXxXxXcXQ.b.l.l.V.#X.XeXn./.gXvXcX8X8X8X8X8XlXtXS.V.A.B.C.",
"      < &.b %.2.S i s a 4 O + i s j @                           +.O.@.9.-X=X1XrXrXwXiXuXn.K.6X7X7X5X2XjXkX6XtX1XrXwXR.C.k.g.f.f.",
".           -     <     . = > > r 3 O & > -                     {.zXzX2XzXkX;Xb.:.$.a i d e * O r < 1 ; ; * , * @ #       .     ",
"F 8.9.n ,.;.&.1.p.i.x.a.x.x.a.T.>.t t y j v n G n h j l l t k y x.N.N.N.N.n.N.n &.h k N N B M f M N -.d.M d.=.N f J J J N J J u ",
". @ ;   1 + * . % + < - , 1 * , ; 4 :.,.2.T.T.Q.Q.(./.          !.n.W.!.m.Q.sXsXfXuXL.^.J.J.,.J.&.H.,X/ / ;X/ ! Z ! 2.$.h 8.,.H.",
"i 2 %   % q 6 q w T ' ' L T T R R T A L ! >XJ.H.H.J.T.    . bXnXhXhXbXbXbXnXnXnXnXhXgXaX/.W.W.m.m.b.c.f.A.}.@XDXHXKXKXHX@XC.C.C.",
"M M N N N J J e.k c O.O.#.z O.+.@.l O.l z %.G G 3.5.3.D D D H   FXAXXX X#X+X X+X#X#X#X|.S.F.M.M.M.z.T.J.T.x.z.z.l.4 ; % O + @ ,.",
"@X$X$X X@XSXoX@X XV.k.g.g.j.j.h.j.g.c.m.m.!././.(.(./.Q.W.W.n.  SXV.k./././././.R.Q.Q.c.Z.B. X}.}.}. XS.D.,.p.c.V.+XoX$XFXoX@X$X",
"$XVXSX$X#XDXCXSXFXHXCXCXSX$X@XXX{.G.).W.uXdXfXhXiX/._.D.%X.XN.X &X*XE.b.m. X|. XS.|.Z.}.S. X X X[. X|.}.}.S.S.B.s.V.#.u a {.VXJX",
": : @ - > > 1 , , 1 : 1 , 1 , ; 2 < , i < < < 5 ; < e : 1 1 > . E.OXSX(.Q.n.|.S.}.}.S.}.}.e , u e , > > - *   h j v m O.e O   * ",
"r h O g.A.}.S.l.A.k.l.l.Z.Z.A.A.S.A.A.C.C.C.D.S.S.S.S.S.}.A.A.A.S.A.S.}.S.}.}. X+X+XAXAXFXHXJXLXKXGXLXGX.   r h z j 7.q.8.sXh - ",
"O     uXsXgXdXdX1X<X<XqXtX<X9X0X<X,X0X<Xq.0X9X<X0XqX<X,X,X<XqX,XqX,XqX<X<XqX1XqXqXyXpXpX).{.CXCXCXCXGXJXs.;.i.d.w.q.U.G.p.aXs.#.",
"O >   * @ @ - * * = = ; - # # @ - * * * - @ * - - * @ * O O + @ KXLXIXLXKXJXJXJXJXOX'..XE.e e e u 1 , , n.n.m.M.E.M.W.v.z.W.Q.pX",
";.@.O.O.;.@.$.%.8.2.4.%.,.+.O.O.$.&.%.+.O.O.=.*.=.=.*.*.*.*.*.*. X{.}.[.D.|.N.(.(.aXaX/.Q.m.b.m.W.W.x.j.M.}. X X X X X X X+X@X+X",
"g.h.h.b.m.n.m.Q.W.T.aXiXaX(./.b.l.f. X@X+X$X#X+X#X@X+X+X+X@X$X$XOXAX#X#XAXVX|.Q./.(.(.aX(./.Q.b.c.c.|..X)..X)..X)..X).*X).&Xt.y.",
"                                    X                       .                           v , r s C m S b j i s i 2 <             ",
"  .                                                               .                   ;.g.C. XP.P.uX/./.W.W.m.j.k.}.@XSXHXHXHXFX",
"$ : 7 q 2 O 2 $ 3 + % r @   % =   - - .                         >XI.^.^.E.^.E.5.7.q.q.x.n.M.G.(.aX(.(.aXaX(./.Q.n.M.|.#XAXHXFXFX",
"@     O         X   . . O O O e   > O O - .                     G.n.M.N.Q.M.Z.S.[.}.[.=.S. Xh.v.j.j.j.j.g.g.j.g.g.h.h.h.h.g.l.l.",
"<.p.d.c >.,.@.i.p.:.>.>.i.>.a.i.>.i.,.>.;.p.a.@.i.>.;.          #.O.#.l O.#.<.<.r.r.<.            O @ = @ @             . e l V.",
"B.C.k.=.B.k.i.C.k.C.k.l.k.C.k.k.k.k.k.k.s. XOXy.HXJXBX          CXSXSXS.V.l.v.sXlX_ ( >.  .       a :.x.F.p.p.p.K.i.a.s.s.>.@.<.",
"@             .       . > h l @.e .   .   O .   . .             $X#X$X@XS.j.v.(.aXbXbXcXxX9.4 $ r s.F.z.n.Q.R.uXaX~.gX0XwX!.T.a ",
"                  .   # = O $ > O         .                     f f f 1 e r r a i i p 5 3 V 8 8 V e , e e                       ",
"IXPXJXt.JXCX].GXFXJXJXKXIXGXAXCXVXAXDXDX].SXCXy.HXCXHXKXPXPXLXKXKXHXHXKXLXLXLXKXPXLXIXLXNX1 NXBXf                               "
};
