/* XPM */
static char *out[] = {
/* columns rows colors chars-per-pixel */
"64 64 249 2 ",
"   c #000000",
".  c #0B0003",
"X  c #02000B",
"o  c #0A000A",
"O  c #020012",
"+  c #050718",
"@  c #060723",
"#  c #130629",
"$  c #0A1639",
"%  c #272735",
"&  c #090A4F",
"*  c #031543",
"=  c #070573",
"-  c #280167",
";  c #05296E",
":  c #212361",
">  c #49014E",
",  c #5E0277",
"<  c #79036E",
"1  c #124462",
"2  c #B72D1E",
"3  c #AF1433",
"4  c #DA1B30",
"5  c #EE0F31",
"6  c #F9003A",
"7  c #DB2733",
"8  c #EF2E30",
"9  c #BA4219",
"0  c #DE541D",
"q  c #E8751C",
"w  c #E8432A",
"e  c #970D4B",
"r  c #AD0A4E",
"t  c #93047A",
"y  c #B4056A",
"u  c #D5034C",
"i  c #CF0C54",
"p  c #D40356",
"a  c #EB0D4F",
"s  c #F6014B",
"d  c #F80059",
"f  c #E82E4E",
"g  c #C90F6F",
"h  c #D50262",
"j  c #DF0267",
"k  c #EE0F66",
"l  c #F70068",
"z  c #E6017C",
"x  c #F60177",
"c  c #D8376D",
"v  c #964A4F",
"b  c #D74960",
"n  c #CF6E67",
"m  c #52ED10",
"M  c #7DE306",
"N  c #B98F3B",
"B  c #EA8814",
"V  c #F1B308",
"C  c #CA8829",
"Z  c #91D908",
"A  c #B2D309",
"S  c #A49341",
"D  c #C59543",
"F  c #0B129A",
"G  c #052197",
"H  c #07339B",
"J  c #0B1DAA",
"K  c #0B04BB",
"L  c #1605B8",
"P  c #2704A7",
"I  c #3703A6",
"U  c #2A03B7",
"Y  c #3502BC",
"T  c #0931B8",
"R  c #6D0C8B",
"E  c #7D028A",
"W  c #7B0199",
"Q  c #6C149C",
"!  c #460FB4",
"~  c #4C02B8",
"^  c #5500B7",
"/  c #6D01B2",
"(  c #7401B3",
")  c #144E8B",
"_  c #176B96",
"`  c #1050AE",
"'  c #3256A3",
"]  c #126CAC",
"[  c #1409D5",
"{  c #2C03D8",
"}  c #3A06D2",
"|  c #0534D7",
" . c #3237D1",
".. c #0906EA",
"X. c #1807ED",
"o. c #0708F4",
"O. c #0203F8",
"+. c #1604F6",
"@. c #0917F6",
"#. c #1214F4",
"$. c #2B08EC",
"%. c #3B03E9",
"&. c #3218ED",
"*. c #270AF6",
"=. c #2401F8",
"-. c #3B06F5",
";. c #3301F8",
":. c #2713F6",
">. c #3716F6",
",. c #0528EB",
"<. c #1529EA",
"1. c #0B30EF",
"2. c #0625F6",
"3. c #1626F6",
"4. c #0736F6",
"5. c #1937F5",
"6. c #3728E6",
"7. c #3432ED",
"8. c #2726F2",
"9. c #2837F3",
"0. c #383AF1",
"q. c #4909D3",
"w. c #5405D7",
"e. c #690AD5",
"r. c #4B2BCF",
"t. c #7727D6",
"y. c #4607EC",
"u. c #5904E7",
"i. c #471BEB",
"p. c #4705F6",
"a. c #5704F6",
"s. c #4E1AF0",
"d. c #6905EA",
"f. c #720AEE",
"g. c #6501F7",
"h. c #6D01F4",
"j. c #7400F6",
"k. c #7C05F3",
"l. c #4A31EF",
"z. c #6D23E3",
"x. c #7A25EC",
"c. c #0C50DB",
"v. c #3B58CD",
"b. c #126FD1",
"n. c #0648EA",
"m. c #1C4DEA",
"M. c #0354ED",
"N. c #0446F7",
"B. c #0B43F8",
"V. c #184BF5",
"C. c #0958F5",
"Z. c #0354F8",
"A. c #015BF9",
"S. c #1A58F4",
"D. c #304DEE",
"F. c #2849F4",
"G. c #2553F2",
"H. c #0666EB",
"J. c #0475EB",
"K. c #0668F7",
"L. c #0265F9",
"P. c #0877F8",
"I. c #017AF9",
"U. c #1272F2",
"Y. c #286BF0",
"T. c #4D53D3",
"R. c #4B65D7",
"E. c #4441EF",
"W. c #4967EA",
"Q. c #8A0293",
"!. c #AD0F89",
"~. c #B90595",
"^. c #A6219F",
"/. c #8701AB",
"(. c #9102AD",
"). c #9B02B9",
"_. c #B802AB",
"`. c #AD06BA",
"'. c #CB0D90",
"]. c #EB0188",
"[. c #F3078A",
"{. c #EA0296",
"}. c #F40095",
"|. c #CA09A9",
" X c #D803A9",
".X c #D501B8",
"XX c #EA01A5",
"oX c #F700A9",
"OX c #E600B7",
"+X c #F500B4",
"@X c #9903D0",
"#X c #AC06CA",
"$X c #B400CA",
"%X c #AA02DA",
"&X c #B502D6",
"*X c #8703ED",
"=X c #9C00EB",
"-X c #8400F3",
";X c #8B00F4",
":X c #8400F9",
">X c #8B00F9",
",X c #9300F3",
"<X c #9D00F4",
"1X c #9500FA",
"2X c #9C00FA",
"3X c #AB08E7",
"4X c #A700F6",
"5X c #B900F3",
"6X c #CA01CB",
"7X c #D600C8",
"8X c #C901D9",
"9X c #D503D6",
"0X c #E901C7",
"qX c #F700CB",
"wX c #E900D7",
"eX c #F700DA",
"rX c #C800E8",
"tX c #CA00E9",
"yX c #D700E9",
"uX c #CA00F3",
"iX c #D500F5",
"pX c #E700E7",
"aX c #F600E7",
"sX c #E500F3",
"dX c #0B90D4",
"fX c #308FC6",
"gX c #038CED",
"hX c #0895EB",
"jX c #0786F6",
"kX c #018BF3",
"lX c #028CF9",
"zX c #128DF1",
"xX c #0293F3",
"cX c #0294F9",
"vX c #019CF9",
"bX c #0998F8",
"nX c #129EF5",
"mX c #0FAEF2",
"MX c #01A4FA",
"NX c #01ABFA",
"BX c #08A9F9",
"VX c #07B2F4",
"CX c #01B4FB",
"ZX c #01BBFC",
"AX c #21A8FA",
"SX c #4982F3",
"DX c #02C7F9",
"FX c #1AC3F0",
"GX c #03D2F9",
/* pixels */
"                                                                                              _ dXVX  fXCXCXZXDXCXNXCXBXNXbXbXvX",
"                                                                                                                                ",
"                                                                                                                                ",
"                                                                                                                                ",
"                                                                                                    > rXuX5XrXrXyXwXpXpXrX4X1X;X",
"                                                                X           X X       1 b.kXkXgXcXvXT.a s j h '.'.$X=X,X<Xg.j.-.",
"                                                                y.y.P           X @ @ @ $ _ NXNXNXNXvXcX+                       ",
"                                                                I.A.z.                  1 ] BXCXCXCXNXNX+                       ",
"                                                                                              .       X                         ",
"                                                                aXaXaX                        ) J.A.L.A.A.A.A.S.L.3.2.<.<.<.1.4.",
". .   .     X X X   .     .   X X .       X O X X           X   O + O X             X X                 X . X o . _ ] ) ] ' ` ) ",
"y.w.q.V.y.d.T.d.e.y.w.d.6.i.d.`.&X[.@X'.v.'.k.~ %XyX,Xa.y.-.$.;.-.*.9.#.*.+.#.1.B.4.4.N.r.r.D. . .T.q. .v.@X8Xp.f.6.i.6.7.r.#X|.",
"e 3 !.T K Y ! W ).).).).).`.!.!.3 Q.3 h ' Q.E , t y r u ~ ^ } ~ Y J a.Y F ~ L | Y T T L.n.n.M.^.Q T.r.t.T._.#.@.@.2.N.N.N.@.@.2.",
"            .                                                     O 4X                DXZXCXZXCXZXBXbXjXL.A.4.4.4.4.4.2.1.4.2.2.",
"                                                                pXp.j.;.a.g.j.1X<X>X>Xa.=.4.Z.A.A.L.L.lXcXvXvXvXlXlXjXlXxXcXlXI.",
"( ~ U _._._._.~.).(.^ L L L K K K I [ { } / ~.).^ } K { K U { K s.2.5.l.G.0.0.G.r.S.G.C.A.I.I.I.I.jXlXcXCXCXnXCXBXA.K.m.lXZXZXVX",
"w.u.=.;X<X*X;Xf.u.a.+.o.O.o.#.O.+.=.f.&X&X&X.X[.d l XX&X*Xg.;.;.p.a.a.g.3.K.K.K.I.jXkXbXjXlXU.jXP.bXP.bXvXBXzXVXZX3.Z.A.zXb.DXCX",
"3XyXtX7.j.,Xx.tXtXyXiXiXsXiXsXtXyXiXeXpX(.aXwX`.iX>Xp.;.O.+.+.=.+.=.p.3.4.cXcXlXBXnXNXNXAXmXbXbXVXzXK.lXJ.zXY.nXvXz.A.Z.S.J.ZXCX",
"r 9 /.c.b.` T L ~ / /./.(.(.R 9 ~.3 ( e , 2 3 < r e r y Q.( U U O.O.:.2.4.| n.c.C.n.1.m.C.0.F.F.0.F.D.F.D.D.t.7.i.#X>.>.i.l.SXW.",
"        .     .             .                     X X           = F - ; ; ; ; ; = = = = - - X   X   X X   X X X X X X     X   X ",
"        .                                                       - & $ * * * * * * * * $ * * & *Xh.-.&X&Xe.j.g.p.$.4.N.L.L.A.C.Z.",
"                                                                                                      X       .       X       X ",
"    X                                                           bXlXcXjXlXzXzXlXzXH.Y.5.0.i.6.l.D.0.l.>.-.a.d.s.P               ",
"% ' : X                                 X                       ZXCXZXDXMXMXlXI.K.K.K.B.2.o.@.2.#.*.+.=.;.;.;.*.U               ",
"# # <                                   +                       ZXCXDXDXNXBXvXP.B.@.*.a.p.g.p.p.h.>X:X>X1X4X:X>XW               ",
".                                                                                       X X X .     X o # + o O X O             ",
"                                                                      .             N.Z.&.>.f.4XuXx.+.#.8.2.2.2.4.N.L.I.xXMXbXlX",
"                                                                DXVXhXP.gXbXxXA.,.@.o.O.X             .               @ X X @   ",
"                                                                  X                                             X               ",
"                                                                              mXzXnXm.3XyX6X}.].].].[.{.{.z 7X8XrX8X9X7X X0X0XaX",
"                                                                                                                                ",
"                                                                                                                                ",
"                                                                                                                                ",
"                                                                                                                                ",
"                                                                                        f.8.F.G.S.K.C.4.@.o.@.O.O.O.y.y.j.h.h.;.",
"                                                                lX,.=XBXNXjXH.M.2.o.@.o.O.o.O.O.=.+                             ",
"                                                                                O O O X           X                             ",
"                                                                3X3Xe. .r.v.T. .v.R.W.W.R.R.B q q w 8 8 8 8 5 s d x {.].z ].{.z ",
"                                                                -.;X4Xm.vXvXm.                                                  ",
"                                                                K.L.E.<.I.I.V.        >                     X                   ",
"                                                                M.M.E.c.K.P.G.        v                                         ",
"                                                                                                      .                         ",
"                                                                o.1.S...o...<.4.4.#.X.+.-.X.#.#.X...$.3.2.3.                    ",
"                                                                1.6.6.|.6XuX{.6X.X}.k 5 b 7 4 i 4 XX5 f q w oXpXwXsXyX4X1X:Xh.a.",
"                                                                      O X         X   . X   + X o X X X o X X o X o o . X X X O ",
"                                                                <X4X%X#X#X&X`._.~.'.b c g i |.'.!.c c n n C N D S N 9 e 3 Q V V ",
"                                                                xXN.@.=X:X,X|.*X>.y.e.a B A Z M M M m Z Z q w 8 8 k k x k 4 B C ",
"                                                                J.4.#.~.7X{.b OX#Xe.w. Xp.p.h.h.h.a.a.;.p.;.+.=.N.H.I.cXbXU.K.L.",
"                                                                DXGXGXW.CXVXfXhXhXVXS.6.2X5Xs.4X:X1Xj.a.y.i.*.:.y.a.*.>.*.2.,.kX",
"                                                                GXGXGXCXNXBXBXMXMXvXxXxX5X3.4Xk.-.iXsX-.3.4.3.-.a.4XrXp.4.Z.N.M.",
"                                                                X X   pXj.h.f.4X,X=X=X>X<X>X:X:X,X,X;X2X-X,X1X:X:X:Xj.k.k.:X-X:X",
"                                                                VXZXFXsXwXqXOXl d d p h s y h u y p p h u h u u r i h u u h p u ",
"                                                                8.5.5.9.G.5.7.x.8.3.p.8.y.. . o X .   o {.+X}.#X0X+XOX.XqXOXl 0 ",
"                                                                9X8X6X7X XOX.XXXp a 5 f j t E E t t E R I I F J J J G G G H ` G ",
"                                                                wXaXaXaXqXoXoX}.[.l 6 5 6 s l }.-X-X%.8.<.{ &.:.p.p.#.*.8.9.n.@.",
"                                                                      X                                                         ",
"                                                                                              X                                 ",
"                                                                                                              X       .         ",
"                                                                                        > 0XoX+XoX&X8XXX].x x x s l [.[.oXoX+X+X",
"                                                                <.{ { ^ 3X8X8X8X8X6X8X%X6XpXqXeXeXeXeXeXqXeXqXqXqXqXl 6 6 6 s 6 ",
"                                                                G.2X1Xs.2X2X4X4X1X2X4X<X1X2X2X1X<X>X;X>Xp.;.*.B.U.J.)           ",
"                                                                GXDXDXc.n.C.C.C.n.N.3.i.+.....+.X.X.+.X.+.@     X X             ",
"                                                                                                                    X           ",
"                                                                ` VXhXT A.N.C.M.U.J.AXAXAXMXZ.Z.B.| C.Z.b.n.B.C.K.C.U.P.I.bXcXcX"
};
