/* XPM */
static char *out[] = {
/* columns rows colors chars-per-pixel */
"64 64 256 2 ",
"   c #2B242E",
".  c #2B242E",
"X  c #2B242E",
"o  c #2B242E",
"O  c #2B242E",
"+  c #2B242E",
"@  c #2B242E",
"#  c #2B242E",
"$  c #2B242E",
"%  c #2B242E",
"&  c #2B242E",
"*  c #2B242E",
"=  c #2B242E",
"-  c #2B242E",
";  c #2B242E",
":  c #2B242E",
">  c #2B242E",
",  c #2B242E",
"<  c #2B242E",
"1  c #2B242E",
"2  c #2B242E",
"3  c #2B242E",
"4  c #2B242E",
"5  c #6D7123",
"6  c #060548",
"7  c #19014A",
"8  c #091645",
"9  c #090758",
"0  c #1A0255",
"q  c #151955",
"w  c #290248",
"e  c #350147",
"r  c #260554",
"t  c #37045B",
"y  c #0F2D4C",
"u  c #070667",
"i  c #130469",
"p  c #10116F",
"a  c #040276",
"s  c #380265",
"d  c #2A0970",
"f  c #12296D",
"g  c #560258",
"h  c #541057",
"j  c #740B4E",
"k  c #62275A",
"l  c #4E0869",
"z  c #490479",
"x  c #5B037A",
"c  c #720770",
"v  c #4E2C6F",
"b  c #14496E",
"n  c #225770",
"m  c #53775E",
"M  c #8A282E",
"N  c #F20D2B",
"B  c #DC3030",
"V  c #976F29",
"C  c #DF4B2D",
"Z  c #8C0E4C",
"A  c #B0155D",
"S  c #8F0C6F",
"D  c #AD0A77",
"F  c #9C2D60",
"G  c #D60650",
"H  c #D71452",
"J  c #F30651",
"K  c #F40359",
"L  c #D12357",
"P  c #CD0775",
"I  c #F50168",
"U  c #E90274",
"Y  c #F50078",
"T  c #D43062",
"R  c #91546C",
"E  c #A94E65",
"W  c #8A7064",
"Q  c #D4565A",
"!  c #55B04C",
"~  c #59C549",
"^  c #999715",
"/  c #A7A717",
"(  c #A8B651",
")  c #0A148B",
"_  c #1B059A",
"`  c #2F098E",
"'  c #082B87",
"]  c #0A2898",
"[  c #172B92",
"{  c #07379E",
"}  c #342B8D",
"|  c #140DB2",
" . c #300CAC",
".. c #3A03B6",
"X. c #142DAD",
"o. c #2A30AF",
"O. c #51098F",
"+. c #4A039E",
"@. c #6F0491",
"#. c #5B259F",
"$. c #4C10AE",
"%. c #6D06AD",
"&. c #7902B4",
"*. c #4F31B5",
"=. c #0E479A",
"-. c #3C4E93",
";. c #0952B7",
":. c #2958A5",
">. c #0E6AB0",
",. c #6355AB",
"<. c #0D0ECA",
"1. c #0C06D7",
"2. c #1808D8",
"3. c #2405C9",
"4. c #2806D9",
"5. c #300FD5",
"6. c #112FD0",
"7. c #2F26CD",
"8. c #0602EA",
"9. c #1301ED",
"0. c #180AE9",
"q. c #0416EA",
"w. c #0704F6",
"e. c #0101F8",
"r. c #1704F6",
"t. c #1400F8",
"y. c #0617F7",
"u. c #1212F5",
"i. c #1B18F6",
"p. c #2601EE",
"a. c #3805EC",
"s. c #3312EC",
"d. c #2802F5",
"f. c #2300F8",
"g. c #3605F6",
"h. c #3B01F5",
"j. c #2818F6",
"k. c #3714F5",
"l. c #0827EB",
"z. c #1B2BEA",
"x. c #0537ED",
"c. c #1635E9",
"v. c #0827F7",
"b. c #0323F9",
"n. c #032AF9",
"m. c #1A28F6",
"M. c #0738F5",
"N. c #0333F9",
"B. c #0D33F9",
"V. c #2423EF",
"C. c #2D2EEF",
"Z. c #520BCD",
"A. c #4504D5",
"S. c #7109CB",
"D. c #7509D5",
"F. c #542BD4",
"G. c #4704EC",
"H. c #5905EB",
"J. c #4F13EC",
"K. c #4300F5",
"L. c #4D01F5",
"P. c #470AF5",
"I. c #5300F5",
"U. c #5803F5",
"Y. c #5C00F5",
"T. c #6601EB",
"R. c #7702EA",
"E. c #7416EC",
"W. c #6400F6",
"Q. c #6B00F6",
"!. c #7300F6",
"~. c #7B01F5",
"^. c #4D2BEA",
"/. c #6D25E2",
"(. c #114FD1",
"). c #0C70CC",
"_. c #2861D6",
"`. c #0846EB",
"'. c #144FEE",
"]. c #0456EB",
"[. c #0646F6",
"{. c #0956F7",
"}. c #025AF7",
"|. c #2E49EF",
" X c #036AEC",
".X c #1074EC",
"XX c #0264F5",
"oX c #0266F8",
"OX c #0766F8",
"+X c #176BF5",
"@X c #0678F6",
"#X c #1677F6",
"$X c #2E7BEB",
"%X c #5D49DD",
"&X c #4A64DD",
"*X c #900791",
"=X c #B80A8A",
"-X c #A9039A",
";X c #B5089A",
":X c #992698",
">X c #9502B2",
",X c #A303AE",
"<X c #B603AB",
"1X c #B403B2",
"2X c #D5028C",
"3X c #CC0196",
"4X c #F50086",
"5X c #E60092",
"6X c #F60096",
"7X c #D001AF",
"8X c #DC02B8",
"9X c #EC00AE",
"0X c #F200A6",
"qX c #EC00B6",
"wX c #8E40A0",
"eX c #8E07CF",
"rX c #9904D7",
"tX c #AA05CE",
"yX c #B601D8",
"uX c #8323CB",
"iX c #9D23D8",
"pX c #8701EA",
"aX c #9702E7",
"sX c #9E1CE8",
"dX c #8600F5",
"fX c #9500F4",
"gX c #9E00F7",
"hX c #A701E9",
"jX c #B400EC",
"kX c #A900F3",
"lX c #B600F5",
"zX c #D101CF",
"xX c #EA00CC",
"cX c #F400D9",
"vX c #C800E8",
"bX c #D401E8",
"nX c #CA00F3",
"mX c #DA00F3",
"MX c #EA00EC",
"NX c #F300E9",
"BX c #E600F3",
"VX c #F200F3",
"CX c #1A8DB4",
"ZX c #1399DD",
"AX c #0695EC",
"SX c #0D8BF4",
"DX c #0486F8",
"FX c #0399F5",
"GX c #009CF8",
"HX c #0EB0E7",
"JX c #04A6F7",
"KX c #01ABF9",
"LX c #04B4F5",
"PX c #00BBFB",
"IX c #07C6F4",
"UX c #01C5FA",
/* pixels */
"                        X e . y ZXHX  :.LXLXUXUXPXKXLXKXLXGXFXKXKXLXIXPXJXJXAXGX;.DXDX>.JXJXDXDXFXDXPXPXKXUXFXJXHX).AXHX' LXLXIX",
"                                                                                  X             .                           X   ",
"                                                                nX5XBXMXMXNXVXNXcXVXNXxXBXlXmXlXfXjX%.. .                       ",
"                                                                nXbXmXbXBXNXcX9X0XqX0X9X6X4XK Y I K H.y.y.b.b.b.u.<.b.y.) y.y.j.",
"                                                                C.E.tX7X3XY N N J N J I J N K I I J Z.1.0.0.2.8.9.<.1.9.] [.n.6.",
"                                                                O . . O . . .   . . . X O < AXJXGXJXJXJX%                       ",
"            X                                                   I.G./..                   - @ PXKXJXGXDX%                       ",
"            o @ X                                               oXoXT.                      >.KXLXLXJXKX%                       ",
"                                                              .                                                                 ",
"  X S .                                           >.JXGXGXJXGX). XDXDXSX@X@X].c.'.{.{.+X'.`.z.s.Q.~.dXkXgXaXhXhX~.aX~.W.!.U.f.I.",
"6.<.>Xg               .           X     +   . o . f ' [ ' [ ' ' ) ] { =.=.=.=.[ { { [ ) ` _ ` O._ +.D.D.pX@.x *X@.@.@._ +.A.3...",
"2 l : 1 r w 0 s r 7 0 i ; 6 r r 7 : * * i _ 5.d ) f p d ) d i ' 9 7 6 > 9 6 3. .9  .$.+.eXS.7.(.H wX%X%X%XaXbXrXH.G.5.7.F.^.iXyX",
"    gXz   .   # O     GXAXGXKXGX X@X(./.rXrX>X,X,XeX1X&.>X1X1X<X7X;X1X7XzX1X1X1X1X1X-X1XE S -X~ Q k :XA :XW ( A A =X2X=X;X6.<.| ",
"    gX.               UXUXPXPXPXPXKXFXSX@X}.N.N.n.N.M.B.l.n.n.N.vXbXmXcXMXm.B.n.v.n.n.n.v.v.v.v.N.N.n.B.n.y.l.y.w.n.M.B.f.      ",
"    .                                                           t r r + .                             .   .   .   O             ",
"                                            O .   -     O %     u O     O @ .               o o + X   & $ $ :   $ 9     . O , 6 ",
"      # . .   O .                       .           - # # > q < . O     - # . . 6 . % > l @.D.D.S.&.#.F.}   r     d     @       ",
"-   . - > % >   .                 o     6 .         - O O # u ; ; O ; . ; . . ; # % , : s O.+.s *.} *.p 6 . <     }     @   . } ",
"e.e.`.JXLXKXGXFX].x.m.u.h.g.U.I.U.U.Q.fXvXmXNXcXVXNXNXNXMXmXBXVXVXNXv =.o.-.d 6 f p f f f } 9 i - ; X.`  .} $.t @ 9   . .       ",
"            .         .                     .   . . + .       . k.H.pXiXiXiXiXiXuXiXJ.k.P.P.| $.$. ._ ] ] { {                   ",
"*Xn k CXR F m E F *.:.:.>. .$.*X=XZ ,.>.V m e g 3 3 1 e 2 2 * e +.O.@.x c c c Z *Xc x #.#.o.F.7.....Z.*.@.} [ a 9 d 1 > w 2 2 2 ",
"    X               X .           X X   .                       m.m.0.0.z.5.7.7.7.5.5.G.j.B.m.j.V.m.c.s.k.{.@X      .           ",
"                                                                JXKXKXLXJXJXFXFXSX#X.Xc.z.^.C.C.V.C.j.V.i.g.I.P.C.>.).>.>.;.;.X.",
"y.u.w.[.N.B.M.C.^.aXhX9XI N 4XP 7XpXt.e.^.t.w.XX].@XOXoXoXoX}.oX X`.]. XOX].OXAXFXSXOX X{.'.B.m.N.u.r.w.g.g.f.g.f.t.I.g.W.!.T.Q.",
"M.v.u.{.f.h.k.K.K.L.d.g.U.K.Y.K.K.f.t.t.|.e.e.`.x.DX@XoX].].].}.}.[.OX@X XoXXXDXDXOX{.`.l.P.g.Q.W.W.U.I.Y.!.Y.!.Q.N.w.w.f.h.h.t.",
"O . . O O . . . . o + # o . . O O O O O . . . . O   . O O . . O . . . . . . .   X X X & o o o . . . o     X X o o + + & + 8 . O ",
"                                                  O U.Y.H.L.L.U.Y.H.H.G.K.h.I.W.R.fXaXhXhXlXhXfXkXnX$X$XSX$X#X$X$X$X&XZX$X|.C.C.",
"                                          ; ; ; > q # O       . HXHXHXHXZX(.| <.<.s.H.Z.      # - 0 7 6 > , > #     <       o X ",
"                                              .   .       .     .   .   . .   O .     .                     .   .         .   . ",
"                                                                  o + . O . O O + + + + + + + + O . O .                         ",
"                                                                                                                                ",
"                                                                                                                                ",
"                                                                p.u.u.I.J.L.H.V.`..XFXAXAXSX@X                X                 ",
"                                                                # # O $ $ # $ - ; % k  .*.%.$.x l x c } h j v Z Z k S %.j Z Z c ",
"                                                          . + O + + + . + + + + + + x eXT T ;X<X;X;X2XD P P ,.2XT :XB Q L Q C L ",
"    X X                 .   .               .   .             X KXN.kXy UXKXJX@XOX`.x.l.N.u.g.H.pXu.g.G.U.E.W.fXdXT.Q.!.T.R.L.d.",
"< 9 9 8 > 0 9 9 6 > > ; ;   .             > 7 s l s s t l g g t 5X3XvXx x x g s l g 3 = 3 M F T =X1XD.E.P./.D.D &.>X;X2XyXqXzXaX",
"O   .   . . .     .           .     .                           U.j.d.@             f     . cXN K 4X8XR.Q.yX3XN B xXK C D.9X&   ",
"                                                  #       .     lXlX^.(.b GX X      S 5XU 4X6X6X6X6X5X2X2XU =XD P D tXrX-XaXrXyX",
"                                                  ; ; y ; < y 8 .     .   O         g <X-XtXG G H L H H D ,XR.T.H.a.I.T.hX8XU U ",
"        @   .                                     ; ; %   < b ;     . O   .         z eX0XqXR.W.~.tXxXzXY Y eX6X4X;X4X6X0XY 4X4X",
"                                                                                    a L.A.G.K.H.7X6X0X4XI I 2XqXqXvXvXvXbXbX8XxX",
"                                                                x.n.y.{.[.[.N.l.u.w.r.a.h.d.p.p.d.0.K.r.8.8.&.&.&..             ",
", , : 1 : : , , 7 . 1 @     % -         X   & o   . + =         i a a a a a a a u a w j k 4 z l s ` O...$.| _ _ c Z :XS n -.S.S.",
"                                                                lXE.dXh.f.e.e.e.e.e.e.e.8.t.w.f.g.L.pXT.T.I.I.W.K.              ",
"                                                                l.8.8.e.8.i.i.B.i.p.a.!.P.P.k.H.P.H.J.U.dXgXaXhXlXjX            ",
"    %       # y                           +   . @ @ O   < 9 p   KXFXDX[.}.{.N.}.@X@XDXc.d.H.T.W.~.R.G.h.k.i.B.OX}.}.4 4 j j S   ",
"> a )                                   . q u ' o.7.X.o.l.l.'.  JXDXDXM.l.l.u.m.c.'.GXSX              .                 _ (.#X/.",
"r u d       s                         y > 7 9 q | ) #.7.7.F.Z.  z.[.[.N.b.n.b.v.N.k.pXQ.                  D.Q.eXR.~.pX~.pXpXZX_.",
".     %       .                 .       .   .     . O   . O .   [.N.b.y.y.v.y.k.N.0.+ +           .           + + + + . + P.4. .",
"                                                                g.p.q.l.q.a.q.l.l.1.  .                                         ",
"                                                                LXIX:.IXUXUXPXIXAXx.B.B.m.                                      ",
"      # 6 9 ; # # $ & - + - - - + O # # # # % - # - # # # - - - c.].'.].x.].`.^.[.[.m.B.1.$ # # # . O   . # $ o - - - ; - O # = ",
"a.h.L.L.g.L.W.gXaXkXlXfXdXI.K.K.I.I.a.h.u.x.[.OXXXoXXXOXXXoX@XoXDX X@X@XDX X@X@XFXJXGXJXGXJXGXJX).8X8XxXhXW.K.u.u.d.w.y.t.t.t.t.",
"9.9.0.8.t.g.f.h.K.Y.W.dXW.Y.Y.g.u.v.{.OXOX'.{.[.|.{.OX'.|.'.CX).@XDXSX#X#X#X+X+X+X+X+X+X#X@X#XSX6.H.J.i.H.k.j.P.H.H.H.J.D.A.1.1.",
"                              .           .                                                                   X                 ",
"                                                                                                                                ",
"                                                                l.7.m.2.4.3.3.A.2.4.5.5.5.5.3.p.G.3.4.)                         ",
"                                                                r.2.f.f.f.r.f.9.a.t.P.kXrXsXE aXfX,XS F V ^ ^ ^ ^ / ^ V M D *X+.",
"7 9 9 > w s 0 0 0 w 7 7 6 6 9 6 8 q f 8 8 6 r w %               .     . .   .         . .   O     O %         X       X X .   . ",
"                                                                IXIXUX X}.oXoX{.{.B.U.aXzXaXpXpXaXrXrXR.dXc ` +...-X*X&.5 5 ! ! ",
"                                                                IXIX@X X'.}.OXOXOX[.V.p.a.p.p.9.9.9.9.9.9.;             X       ",
"                                                                                                                                ",
"                                                                                                                                "
};
