/* XPM */
static char *out[] = {
/* columns rows colors chars-per-pixel */
"64 64 255 2 ",
"   c #000000",
".  c #02000B",
"X  c #0A040A",
"o  c #10080D",
"O  c #020113",
"+  c #0B0114",
"@  c #02021A",
"#  c #08061A",
"$  c #170517",
"%  c #2A0317",
"&  c #310A16",
"*  c #010124",
"=  c #080626",
"-  c #140326",
";  c #0E1526",
":  c #060536",
">  c #190238",
",  c #031933",
"<  c #07153B",
"1  c #250629",
"2  c #2C132F",
"3  c #280236",
"4  c #09223A",
"5  c #2B242E",
"6  c #46050F",
"7  c #4F072C",
"8  c #6E0731",
"9  c #5E3021",
"0  c #542A34",
"q  c #040549",
"w  c #160145",
"e  c #080456",
"r  c #111550",
"t  c #280147",
"y  c #260357",
"u  c #310B50",
"i  c #1A284D",
"p  c #0E086B",
"a  c #360364",
"s  c #2C0672",
"d  c #0C2D75",
"f  c #2D246F",
"g  c #470349",
"h  c #530D4E",
"j  c #48025A",
"k  c #690E54",
"l  c #4D304D",
"z  c #51096A",
"x  c #6F0970",
"c  c #602862",
"v  c #3E4949",
"b  c #5F5065",
"n  c #AB1439",
"m  c #A32837",
"M  c #E3161B",
"N  c #EF0831",
"B  c #EB2525",
"V  c #AA5828",
"C  c #A86825",
"Z  c #E65C21",
"A  c #8E0C52",
"S  c #A92656",
"D  c #AE2659",
"F  c #8A076D",
"G  c #A70A6D",
"H  c #BA0277",
"J  c #88286F",
"K  c #B42E6C",
"L  c #D80550",
"P  c #F1024F",
"I  c #DC2659",
"U  c #CD046F",
"Y  c #EC0369",
"T  c #F20177",
"R  c #A45E59",
"E  c #CF4C52",
"W  c #E05E4E",
"Q  c #3EA03B",
"!  c #57D535",
"~  c #76A27D",
"^  c #A2A425",
"/  c #E1991C",
"(  c #BBE118",
")  c #B99F4D",
"_  c #0A0788",
"`  c #1A0496",
"'  c #120B94",
"]  c #3B0587",
"[  c #2E0990",
"{  c #0D2B95",
"}  c #322694",
"|  c #160CAB",
" . c #3107AF",
".. c #092BB2",
"X. c #3026AD",
"o. c #510891",
"O. c #6D088C",
"+. c #780799",
"@. c #69288F",
"#. c #5106B4",
"$. c #6E0AAF",
"%. c #7705B5",
"&. c #5125B3",
"*. c #6332A7",
"=. c #1051AA",
"-. c #0E6CB6",
";. c #0F0AD3",
":. c #300CCF",
">. c #162DDB",
",. c #2F32D4",
"<. c #0E0AEC",
"1. c #171BEB",
"2. c #0607F7",
"3. c #1905F6",
"4. c #1401F8",
"5. c #0815F7",
"6. c #1916F6",
"7. c #2703EC",
"8. c #3704EA",
"9. c #3118E6",
"0. c #2605F7",
"q. c #3A05F6",
"w. c #3401F9",
"e. c #2818F5",
"r. c #3916F4",
"t. c #0425EB",
"y. c #1C29ED",
"u. c #0535EB",
"i. c #0526F8",
"p. c #1828F6",
"a. c #0537F5",
"s. c #1735F5",
"d. c #2E2DED",
"f. c #2324F6",
"g. c #4C04C6",
"h. c #540BCD",
"j. c #4906D5",
"k. c #6506C5",
"l. c #7903CA",
"z. c #6707D8",
"x. c #7903D6",
"c. c #7116D0",
"v. c #4632D1",
"b. c #6E22D3",
"n. c #4807EB",
"m. c #5012EC",
"M. c #4905F7",
"N. c #4402F8",
"B. c #5605F7",
"V. c #6804EA",
"C. c #7805E7",
"Z. c #7017EC",
"A. c #6703F7",
"S. c #7703F6",
"D. c #4C2AEC",
"F. c #5422F1",
"G. c #7322E7",
"H. c #114FD8",
"J. c #2D4ED8",
"K. c #0973D1",
"L. c #266BD5",
"P. c #0F46EA",
"I. c #055AE9",
"U. c #0548F7",
"Y. c #0246F9",
"T. c #1847F5",
"R. c #0958F7",
"E. c #0255F9",
"W. c #1658F6",
"Q. c #2C53ED",
"!. c #2945F3",
"~. c #0468ED",
"^. c #1172EF",
"/. c #0666F8",
"(. c #1667F6",
"). c #0775F6",
"_. c #027BF9",
"`. c #3564EA",
"'. c #266AF2",
"]. c #2473F3",
"[. c #524ECB",
"{. c #4F50E8",
"}. c #90038F",
"|. c #96048C",
" X c #8A0699",
".X c #B8038C",
"XX c #A60492",
"oX c #B70295",
"OX c #9C2296",
"+X c #9009AB",
"@X c #8805B7",
"#X c #9604B9",
"$X c #AF06AC",
"%X c #B702A7",
"&X c #AC02B7",
"*X c #D1028E",
"=X c #C50293",
"-X c #F80088",
";X c #EC0891",
":X c #F70096",
">X c #F5009C",
",X c #CA05B5",
"<X c #EA03A8",
"1X c #F500A7",
"2X c #EA00B5",
"3X c #F501B7",
"4X c #C92AA0",
"5X c #A94F9F",
"6X c #9703C7",
"7X c #9007D4",
"8X c #B704C7",
"9X c #AD01D1",
"0X c #A703D9",
"qX c #9421CF",
"wX c #8905E9",
"eX c #9702E8",
"rX c #8118E8",
"tX c #8403F6",
"yX c #9803F6",
"uX c #A602E8",
"iX c #B503E8",
"pX c #A801F5",
"aX c #B800F7",
"sX c #CE00CC",
"dX c #C800D8",
"fX c #D802DA",
"gX c #E805CB",
"hX c #F300C9",
"jX c #E800D6",
"kX c #F300D8",
"lX c #C702EB",
"zX c #D801E7",
"xX c #C701F7",
"cX c #D800F4",
"vX c #E700E8",
"bX c #EA00ED",
"nX c #20839A",
"mX c #0A8AD4",
"MX c #058AEB",
"NX c #0296EB",
"BX c #0787F6",
"VX c #0284F9",
"CX c #0189FA",
"ZX c #178DF3",
"AX c #0796F7",
"SX c #019BF9",
"DX c #08A8F6",
"FX c #00A4FA",
"GX c #02AAF9",
"HX c #13AAF5",
"JX c #06B5F6",
"KX c #13B6F7",
"LX c #01C9F9",
"PX c #1AC8F5",
"IX c #01D0FB",
/* pixels */
"                                                                                                                                ",
"                                                                                      . .   .                                   ",
"              # # 2   +                                         T 1X:X1X1X-XT P T 1XF.I.I.~.AXNXBXBXMXAXHXHXKXHXHXKXHXHXDXHXKXKX",
"        X                                                       B.B.w.w.N.q.N.N.N.N.!._._.CXSXFXFXFXDXGXJXNXNXDXDXJXDXNXJXGXHXGX",
"s X...f   e X. .@XZ.x.@Xx.l.C.eX  O O.z o.                      eXcXdX'.AX(.p.!.N.tX$.k.&.k.qX6Xx.b.z.z.n.@.s g.&.z r { < } f . ",
"2 h R O . 5 0 2 c c @.qX@X7XG.h.u +   . r                       Z / ( [.(.`.s.e.A.0Xl 5X; o # ; O 5 O O 2 # < v @ p 9 l b v ; O ",
"< q = O O           X                                           K.NXCXmXK.mXBXCXE./.E.E.d < p a e p r q : # . = .   . = * = O , ",
": X                                                           . AXMXmX  mXSXVX).E.E.Y.E.E.R.U.a.i._.FXFX#                       ",
"O                                                               4       ].].Q.!.s.d.!.p.s.Y.a.Y.s.].^.].                        ",
"                                                                  : r       :.#.k.%.&XXXU G =X=XoXoXH U H =X.XH H oX.X%X=X*XU U ",
"                                                                  q ;.# X * 1 iXuXuXlXfXfXsXiXyXwXC.eXiX$X} x x } z O.}.x n.,.v.",
"    X                                                           D.T &X0X,X:X1XY T -X;X>X:X;XY C / ~ ^ JXJXIXIXIXIXIXPXPX| M.W.BX",
"8 8 8 9 6 5 3                                                   %.R ^ B.yX&XD K W W Z V V C V ^ ^ ~ ! JXJXIXIXIXIXIXK.( +XN.5.FX",
"    X o     X                                                   F.m.uXw.5.7.q.B.A.h..               * w # # + + . . . + w [ _  .",
"                                                                Y.6.N.M.pXtXq.p.p.a.6.B.tX9XM.wXiXdXz.                    O   . ",
"  =.[.L.{ { [ g x                                               L S N Y U H |.G G G F XX X@X$X%.+X#X@X#XA S                     ",
"# .     .   X     f z                                           P N P M P - !._.T._._.J.CX_.(.I.VX^.).ZXMXFX'.JX5 G.b J.&.U.R.W.",
"              o X + # + # . X                                   J.Z / $XB # !.VX].NXJX`.VX~.AXAXAXW.).).^.ZX'.NX- o.O c | (.E.E.",
"        . .                   .   .                             z Q Q J ..v e.e.p.1.i.U././.~.)./.R.U.Y.Y.U.d.E.E.Z.U.E.J.).VXVX",
".     - 0 F G #.&.@.o.f X._ _ p [ ' p p p q p                   ) C / I Z h l #.z.z.k. .z X         X z #.h.e *     X   + i c @.",
"J O.x % A $.c u #.O.#.%.@XXX@X$.4X+.H }.h =XOX9 R $             5X) ) qXhXk x I K D 5.p.a.p.u.t.i.a.a.s.f.s.r.d.1.e.1.8.7.).ZX/.",
"3 y k - j u ; 0 w a h J F +.OX6X#X+.%X.X7 *X0XXX2X%             D.3X3XqXvXhXhXG ' o.r.D.M.n.N.r.8.r.9.>.>.y.F.y.P.m.T.1.<.e.7.7.",
"j 8 o.3 F +.x $ j o.F }.+.6X@XX.c.+.6X#.f *.v.@.C.$             D.lXlXG.uX,X4X,.v.v.} &.&.$X X%XrX8X,XdXeX9X#X+X+Xj x 8 . O . O ",
"O     u +Xz.6Xx.%.6Xz.h.%.#X6Xb.+X@X+.s k.}.o.z g               VXpXyXG.sXhX1XT N rXZ.Z.O.o.}.@X7Xk.$.%.Z.#Xx.Z.&Xn.w.n.V.w.q.7.",
"#     $.+XuXuX&X7X6X$X#.@X7X7XeX7X%.@Xo.u O.O.1 u               ).xXxXZ.aXxXcXxXdXaXxXcXeXaXdXgXiXtX8X&X9XL L Y <Xq.0.3.8.4.4.0.",
"> u o.z $.+Xs +.f $.%.b.$.X X X - + -   3 g 7 j j               ' :.o.&.9X%.l.$.%.h.g.g.uX| ` ` ` s ` | [ ] [ x +.m.Y.a.i.i.6.6.",
"    .                                                           X       .                                                 $XF k ",
"            . # & & & i $                                       D.hXhXhXbXhX>XP N M M Z X                   . . . . . . .   . O ",
"        g & & 7 9 6 6                                           u t a t j s j z h k k       p 5.4.2.2.2.4.a.Y.Y.Y.Y.Y.Y.i.4.w.0.",
"                                                                                                                                ",
"                                                                                                  ; ;                 $ 2 O.a 3 ",
"                                                                                                                    * + @       ",
"            X                                                   kXkXjXjXvXgXhXvXvXvXvXgXgXjXfX  .                               ",
"                                                                7.N.n.8.7.7.7.7.0.w.3.<.4.4.4.4.3.3.                            ",
"                                                                                                                                ",
"x 3                                                             bXbXbXS.A.S.S.A.S.S.iXdX3XkXkXkXzX@   . .       . + o + .       ",
"- X $ . % - o 3         .                               .       i.<.w.7Xl.q.w.0.r.d.j.k.#.k.k.k.$.h t o.S.M.w.<.<.2.5.5.5.5.R.).",
"R.).BX`.v.v.Q.D.D.d.D.{.J.L.l.z.L N N M N N T Y 1X:XT T T -X-X-X1X:X2XjXfXpX9.y         X                 .                     ",
"=   .     @ . @                                     .           yXA.tXx.S.tX8Xo.a u - - $ ; r o   *       . .     X +     3 7 = ",
"              q - + = : - : : * + * < X                         4.2.2.2.4.VX<XgXzXbXiXzXzXdX7X7XuXuXwXaXiXxXkXhXjXjXdXrXD.V.wXs.",
"O   9 O 5 ;   X . # . .   . . . +   .   . .                     2.5.2.5.4.2.4.2X2XkXhX3X1X-X-X>XhX3XkXhX3X3X:X-X:X1X2XqXD.cXtX).",
"      . :   ; d e .             : ;   .     .                   _ _ _ '  . .| >X3X2X2X2X2X;X1X<X>X1X>X>X3X1X2XfXfXwXb.d.`.{.uXwX",
"                  7     o . + y 2 : y j r o.                    fXgXlX8XA.0.+.    4Xx h g % h k j ; & % - - % 1 3 2 - # = 2 2 & ",
": > t t > 3 u c a a t y e w q e w w w w w t : w w 1 t w w w 3 3 G.V.S.wXA.S.eX6 6 O.7 A x XX@.z O.k n n D k D V E J c.OX X$X4X,X",
"                                        .                       *.5.i.v.i.a.U.Y.E.P.P.!.&.:.| ..[ { S x 8 n A A l F x +.K K x X.",
"                  O @                           @ .         jXlXhX1X1X1X3XhX3X3X3X-X;X:X3XgXzXcXaXlXzXjXjX:X>X<XfXbXeX3.2.2.5.5.",
". #                         .     #       . .   O . :           AXCX`.d.T.U.D./.^.(.W.T.f.y.d.(.]._.^.).^.(.(.`.`.V.t = X     + ",
". O @ .       O - @ y p e p c ] s y         . + O w :           f.S.S.tXpXaXaXaXxXlXsX3XT *X$X7Xj.s.u.a.a. .:.2.i.AXDXAXGXNXGXGX",
"                                            .       +           ,.A.S.A.B.m.F.F.F.F.d.F.F.D.a.W.R.I.u.,.,.D.r.m.r.H.$.s :   -.JX",
"  .                   X       . . .   .       . .   .     .     HXBXBXT./.ZXBXVXAXZX)./.E.@ O O O O ; O @ O u.y.e.9.,.d.J.-.H.I.",
"<.i.VXZ.B.9.1.p.)._.BXBX_._./.'.(.).).(./.R.T.t.p.7.n.A.B.B.m.Y.e.w.p.s.R.s.)./.W.f.r.r.q.B.pXaXr.7.M.m.p.E.e.A.m.tXxXxXy.d , { ",
"(.ZXxXlXcX0X%X$X+X.XoX|.oX.X|.*X.X.X.X*XoX=X.X.XoX.XoX$XXXXX+X%X$XoX.X*XoXoX.XoXoX=X=X*X*X5.#X%X%XeXA.e.3.0.3.2.;.i.t.q ; . . , ",
"e y o.@ . . . . . O O .   .   O O . . . . . . . . . . . + . . O <.B.tXPXPXIXPXLXIXZX].DX~.= X = @ O @ O U./.E.u.a.a.1.f.U.s.P.4.",
"p [ #.o.+._ ' | ` o.o. X X}.}.|.|.{ ` ` ` [ [ ] o.[  .[ ` ` ` ` 2.4.6.q.M.6.0.8.B.tXiXsXfXcXfXvXlXU.6.6.0.N.N.M.q.q.N.w.7.4.7.4.",
"s j.B.lXwXaX0.w.M.A.pXlXzXcXzXcXcXiX6.B.B.tXA.B.S.B.A.A.w.w.B.w.M.B.M.w.0.3.0.y.r.D.S.yXeXpXyXiX0XV.e.r.N.B.n.M.B.B.B.q.7.8.g.:.",
"    .             .                       .             .       .           X               . +     X O o , ; o O         .     ",
"                                X                                                     -.GXCX_._.~./.).).CXSXFXFXGX#     5 i   X ",
"                =   .   q # $ r e ` s u                         9.p.9.m.r.r.:.h.:.x.z./.SXFX_._._._._.).CXFXGXGXFX-.  < u > h l ",
"                  . + q   X : X O q . + *                       AXKX^.MXBXCX_.).).).VXH.CXCXVXVXCXCX_.I.[.b s u } ,.>.k.:.  @ i ",
"t.t.u.{ t.a...U./.I.'.K.K.).L.ZXHXKXPXHX=.ZXVX{ u.P.P.          =.nX-.d -.K.mXK.H.-.mXy 3 = @         1 7 m I M B B M H D E S l ",
"Y.a.a.' i.a...a.i.i.i.i.i.i.a.p.i.i.i.s.' BXAXK.].R.;.          SXGXI.BX).).~.I.VXI.).    @ * O O      .} 9.;.h.:.h.X.V.V.#XrXwX",
"                        .   .                                   NXFXNXNXGXGXGXNXGXGXDXGXJXd , # @ O . s :.z.B.r.n.g.j.g. . .X._ ",
"                                      .     .                   , , , , , 4 , : , 4 , , r 4 , , r 4 4 , , X                     ",
"h.w.R.d I.I.H./.W.R.E.I.E./._.CXSXSXFXJX..MXCX=.E.Y.U.u.E.U.Y.U.I.U.E.Y.P.U.U.Y.E.I.E.R./.VXBXAXSXSXSXFXAXK.                    "
};
