/* XPM */
static char *out[] = {
/* columns rows colors chars-per-pixel */
"64 64 254 2 ",
"   c #000001",
".  c #0A0003",
"X  c #02010B",
"o  c #0A010B",
"O  c #07090D",
"+  c #14030B",
"@  c #020113",
"#  c #0C0113",
"$  c #02011B",
"%  c #0B021B",
"&  c #0A091A",
"*  c #160419",
"=  c #15141A",
"-  c #2D0512",
";  c #26011A",
":  c #020223",
">  c #02002B",
",  c #0B0628",
"<  c #160227",
"1  c #15142C",
"2  c #030032",
"3  c #0B0634",
"4  c #04013B",
"5  c #150337",
"6  c #061935",
"7  c #250227",
"8  c #33072F",
"9  c #250236",
"0  c #20282B",
"q  c #4A0817",
"w  c #4E032E",
"e  c #470337",
"r  c #6F0836",
"t  c #503730",
"y  c #414E2F",
"u  c #060447",
"i  c #160347",
"p  c #0C164F",
"a  c #050457",
"s  c #160556",
"d  c #250347",
"f  c #390447",
"g  c #260558",
"h  c #360259",
"j  c #301558",
"k  c #0E2A4A",
"l  c #29364D",
"z  c #0F0B6F",
"x  c #180467",
"c  c #240366",
"v  c #340567",
"b  c #280578",
"n  c #380378",
"m  c #2A1678",
"M  c #112A6C",
"N  c #2F2870",
"B  c #52054C",
"V  c #490357",
"C  c #6E0453",
"Z  c #512F53",
"A  c #702E57",
"S  c #480467",
"D  c #540675",
"F  c #6B086E",
"G  c #533071",
"H  c #6F2A70",
"J  c #19426A",
"K  c #63535C",
"L  c #A4202F",
"P  c #EC0D16",
"I  c #E51C1F",
"U  c #EC0A29",
"Y  c #F4043B",
"T  c #D9242E",
"R  c #E92E30",
"E  c #E9611E",
"W  c #D74A25",
"Q  c #E9492F",
"!  c #8A0859",
"~  c #B50653",
"^  c #9F1B62",
"/  c #950B76",
"(  c #AC3468",
")  c #D91A4B",
"_  c #E50B4A",
"`  c #F40348",
"'  c #E70657",
"]  c #F50259",
"[  c #ED284E",
"{  c #D1076F",
"}  c #E90267",
"|  c #F50468",
" . c #E70972",
".. c #F70079",
"X. c #CF2C66",
"o. c #EB276C",
"O. c #A54F56",
"+. c #DE6E4C",
"@. c #719F3E",
"#. c #72B631",
"$. c #64D036",
"%. c #62AB47",
"&. c #A6A12A",
"*. c #E0941F",
"=. c #B2DB16",
"-. c #BEC828",
";. c #D6D813",
":. c #D8E012",
">. c #B3A25B",
",. c #070386",
"<. c #180685",
"1. c #0B1A8F",
"2. c #0B069B",
"3. c #290587",
"4. c #2F0E8D",
"5. c #3A0285",
"6. c #360598",
"7. c #113187",
"8. c #282C94",
"9. c #0C0CAE",
"0. c #2D0AAE",
"q. c #2A08B5",
"w. c #102DB5",
"e. c #2B28AD",
"r. c #4A0990",
"t. c #59059B",
"y. c #720B8C",
"u. c #6A0499",
"i. c #532A8D",
"p. c #4805A2",
"a. c #4A07B6",
"s. c #5704B6",
"d. c #5315B3",
"f. c #6F05AF",
"g. c #6D24A8",
"h. c #144E94",
"j. c #245AA8",
"k. c #5B5CAC",
"l. c #0E0DD0",
"z. c #2E0ED0",
"x. c #132CC9",
"c. c #0A2BD8",
"v. c #3225D0",
"b. c #0C0CEA",
"n. c #0903F6",
"m. c #1405F7",
"M. c #0715F6",
"N. c #191AF7",
"B. c #2607E9",
"V. c #3806EB",
"C. c #2705F6",
"Z. c #3604F6",
"A. c #2F15F1",
"S. c #2418F6",
"D. c #0627F6",
"F. c #0F2FF0",
"G. c #0735F6",
"H. c #2A25EA",
"J. c #2D30EF",
"K. c #2726F4",
"L. c #5906C9",
"P. c #4D0FD2",
"I. c #4B03D9",
"U. c #6A03C9",
"Y. c #7705C8",
"T. c #6804D6",
"R. c #7705D7",
"E. c #7815D8",
"W. c #4A2ED0",
"Q. c #4905EA",
"!. c #5903EB",
"~. c #5017EF",
"^. c #4400F6",
"/. c #4406F4",
"(. c #4B00F6",
"). c #5301F5",
"_. c #5702F6",
"`. c #6703E8",
"'. c #7905EB",
"]. c #6916EC",
"[. c #7817EB",
"{. c #6803F6",
"}. c #7601F7",
"|. c #4928EC",
" X c #6C31E5",
".X c #0848D9",
"XX c #0848EC",
"oX c #1050EA",
"OX c #0645F8",
"+X c #0556F8",
"@X c #254BF2",
"#X c #046CED",
"$X c #156FEF",
"%X c #1476E2",
"&X c #0566F7",
"*X c #0279F7",
"=X c #4956D0",
"-X c #88058A",
";X c #920792",
":X c #AA038B",
">X c #AF0895",
",X c #B42B96",
"<X c #8C06AE",
"1X c #A703A6",
"2X c #B902AA",
"3X c #AD05B7",
"4X c #CF0690",
"5X c #E80A8A",
"6X c #F5008A",
"7X c #E80197",
"8X c #F50298",
"9X c #DB2A92",
"0X c #E02295",
"qX c #D401AB",
"wX c #CC03B7",
"eX c #EF01A8",
"rX c #E801B7",
"tX c #F502B8",
"yX c #8805C9",
"uX c #9805CA",
"iX c #9016CE",
"pX c #8401D8",
"aX c #9801D9",
"sX c #A702C7",
"dX c #B802C9",
"fX c #A601D8",
"gX c #B900D0",
"hX c #8502E8",
"jX c #9703E8",
"kX c #8602F6",
"lX c #9901F5",
"zX c #A801E6",
"xX c #B901E5",
"cX c #A900F6",
"vX c #B801F7",
"bX c #D700C9",
"nX c #C600DB",
"mX c #D800DA",
"MX c #E800C7",
"NX c #F600C8",
"BX c #E600D8",
"VX c #F500D7",
"CX c #CF00EE",
"ZX c #DA01E6",
"AX c #C701F5",
"SX c #E800E5",
"DX c #E900E9",
"FX c #2E8CA7",
"GX c #0E95E4",
"HX c #0488F7",
"JX c #0196F7",
"KX c #0BAFF9",
"LX c #05C5F6",
"PX c #00CCFA",
/* pixels */
"                                                                                                        O                       ",
"                                                                                  . o 6 6 6 6 1 k l 6 k k 6 6 k k k 6 6 k 6     ",
"X           % :   : 3 9 X @ 3 l.n.b.B.                          NX5X] ] ] ] ] 6X8X6XF       K 8 7 * ; 8 Z H V b x X   X   z = . ",
"                      2 X   | MXtXNXmXSXmX                      OXOX+XG.qXeX] Y ` ` r .   X k.X     o k %.H p.8.        $ z p M ",
"          ,.2.2.2.2.2.2.2.2.NXVXNXVXVXD.M.                      OXG.A.B.N.F.|.fXxXrX<X:Xv F r 8 B f p a.G.l.Y.a.u.Z v <.5 h -Xy.",
"        N.S.S.C.Z.S.OXXXD.D.D.D.D.G.C.C.m.                      ].'.1X1X2X2XwX3XdXdXm ;Xi , s X   3 @ @ S s 9 P.~.].d.L.5.q.B.z.",
"= o     X X @ @ @ $ @ @ X   X X @ X & X 4                       D.N.m.^.).(.{._._.^.(.^.b d c g a <.s a s X 2 2 : i a a 2.,.2.9.",
"        pXcXcXvXAXCXCXDXZXZXmXmXZXDXmXZX/                       JXJXKXJX#XXXG.M.m.m.Z.C.^.V.^.Z.M.OXD.n.7                       ",
"        % o * m.n.m.n.m.n.n.n.C.Z.Z.C.m.                        JXJXJX*X&XOXS.A.B.Z.(.^.Q.Z.)._.N.b.S.b.  O   .                 ",
"                                                                            .   X X   X     A ( L O.+.X.O.9XX.L E O.) W T 1XE.@X",
"                                                                m.m.m.X                 X O O h.GXKXJXGXW.p   . . X .   > p M   ",
"o X                                                             : < , X X           X X O & O = O @ O                   :     X ",
"          % X X                                                 uXqXBX'.kXpXE.:X:X-X                      o         X X X X   h ",
"                  *                                             AXmXbXAX[.kX'.cXvXuX                ; # , ; a.uX3XaXzX<XjXiX<Xc ",
"                  .                                             mXzXxXBXVXVXMXNXMXyX              X < I.v.6.n v x 3.s < : 4 # * ",
"  2 x 5.p.e :                                                   +X[.zXxXZX[.|.P.aXa 8 M p x p z z u a M M M   X X X             ",
"E o.R E :.;.;.=.=.-.-.                                          D.n.+X+XOXM 1 % 1 6         X X             6     8.  : # # i c ",
"fXhXxXrX7X| | @ # + > # . @ .                                   *XJXJXHX*X1 X : %           X .   X   @     6 X   v   $ u   v.9.",
"      X                       .   .       .                               fX    % 2 X , @ , > 6 i j $ X     i     v     #   < H ",
") o.o.0X9X0Xo.o.eX0X,X9XdX0X;Xu.;XZ z S C r G                   J.J.].~.zXc.c.0.3., x & @ s i z 3 z > 0 3 x 4 4 & * p 3.2 i z y.",
"I ` ..BXMXU ..6XtX8XuXeXeX3X8XgXsXhXqX5XZXNXi.n g.8 X . = - < % wXU P -X^ @ O W.z.v.i.g.g.iX-X>XF s.e.1.1 5 s 5 6 r.i 3 d 3 7 < ",
"E Q I P o.6X..*.| | uX) | ,Xo.qXnXfX~.} | 6X0 .   *             f.] 5X~.kX}./.D b 1.jX'.jXcXxXnXwX2X;Xg 5 7 8 ; - d 5 1 4 p u 6.",
"5 &   3   o = o , < i * , 5 D 9 . X X X O   % X 4 =             uX' qXV.}.`.f.P.W.x c c 4.yXf.u.-XpX'.`.{.U.t.Y.Y.V F K s o u X ",
"X     * u.;Xd.<X-XF j s b j b 0.q.x w.h.7.w.% 3 @               D.S.N.F.F.G.D.K.].% . @         # p.].e.<XY.E.~.T.a.y.v.d.J.].|.",
"  X X W.c.oXH.z.l.H.w.c.c.C.N.D.HXHXHXGXJX*X$ a a               +XD.m.F.Z.).!._.).^.(.Q.Q.!.I.U.T.N.A.).V.n.m.m.b.x M 9 9.`.G.K.",
"M M 8.z 1.h.7.j.7.M N 8.p H G G Z K G K K K K y 8               x.T.U.v.L.L.L.yXY.`.9XQ Q _ | 5X[ | R T  .0XqXW ( 3 @   5     o ",
"  X X             .     .                                       .                   3.Q.m.C._.Z.(.Z.Z.^.B.Q.^.^.1 @ o 3 X 5 X $ ",
"            s D V F C C q                                       _.}.~.{.fXbX7X .P R E *.ZXBXHXo                 7 1 7 c s v < * ",
"              X o                                               a a x z n n S 5.B V / o.R [ j.      X   X X           X i.#     ",
"                              @ o + o . o X o - 7 V f.t.s.s.s.s.Y.f.I.0.@ . X > s M w.+XoX+X+XXXXXoXoXXXzX5X} ` Y Y ] ..8XtXSX!.",
"                                                                                    h.JXJXh.        .         $ X 5 x g 6.D p.5 ",
"                                                                                    p 1.    : 3.a.y d - 5           $ $ s g @ d ",
"$ d ;X-XS S b b D D F B B C ;X                                  zXmXMXtXeXhXuXsXbXMX7X..} ] '                                   ",
"  [.].J.{.N.N.B.A.!.hX'.[.].@XG.&X*X                            CXvXkX{.}.cXZXBXrXkXkXcXSXmX..` Y Y                             ",
"                                .                                                   V u.y.F ! !                                 ",
"f D.|.c.G.|.D.D.G.OX+X&X+XHXJXGXGXJ                             VXtXVXKX*X&XG.Z.}.AX6XP *.;.;.;.;.P.).{.X % * 3 3 , * 2 X   X   ",
"y.R T 4X*.Q [ W Q T Q Q Q 8XrXVXzX    X                         V.].'.qX'.`.`.!.V.V.T.MXeXrXsXY.dXH.|.q.o % @ X i f.pXyXf @ X @ ",
"F rXzX`.{.kX}.1XX   X X                 o X @   X X     X     X X   . $   o > X     z l.A.}.lXcXCXZXBXSXv..X#X#XoX&X&X+XG.XXG.G.",
"5 V v {.Z.m.m.r.                                                pX[.iXjX'.fX,XD S V G y.2X1XY.a.Y.z.I.e # t j @ $ @ @ X @ t h 8 ",
"@   X         $ d i > $ # + $ 5 i u O f                         M.G.M.A.N.M.9Xa.0.P.x.2.z 1 u z.9.2., o   . X         X :   <.0.",
"    y.g 3XsX<X1XB -Xh H g d % . - 5                             +XG.(.[.NXNXVXt.v.d.<Xd.f.<.U.I.z.z           O   i z.      S ;X",
"    o s w.f b u.c B i h s S = j x <.5 X 3 $ #                   ,.z 2.u.:X<XuX/ A H Z O.8 O.t B r y F ^ A y.G i.G k.+       A 0 ",
", *   X     s     9     % 5 x   S 9   l C 5 u : g     .         %XSXBXeXDXSX4XX   9 f z p u @ @ = , < 5 , : o @ # o             ",
"* a D q b n s ;Xe.s.d.`.z.a.`.6.V @                   + .       , T.S. Xv./.aXR.t.. 3 , : # % @ i 5 6.3.B u.z   1 .             ",
"v r.t.9 yXpXt.sX3XY.1X<XwXwXwXqX1XqXaXaXL.!.Q.B.).V.!.          R.C.C.{.^.}.kXkXhXlXdX_ 4X~ { { 4X:XX.X.^ O.A A L ! C L ( r.p.f.",
"  +     X # . o - r w ! / / :X2X1X:XuXsXL.L.L.z.Q.!._.          S.F.^.P.^.}.T.{.{._.iX~ nXnXnX+.&.#.%.#.$.#.%.#.$.#.#.@.&.+.+.>.",
"          .           X o o : @ X X @ X   o     X   #           D.N.M.G.@XG.+Xk.*X*X@X(.N.P.:XP U Y U Y ` _ _ T I   o o + * % a ",
"  X                         $ v d :       X i S r.s s     X   X h.e.7.t.p.p.p.r.p.0.R.lXA.yXU ] | ` | 6X` 3X:X0.          z.s.s.",
"                      V B B e g a x i i a a u x h F f X @ X X X X     X X           @ 4 4 % < , 5 X @ < 5 5 d f.v C 9 + 7 v ; T.",
"                                                      o               X o     X       .       .           X   : o @ X 1 2 .   S.",
"                          $                                     &XJX}.'.Q.~.J.OX+X*X$X@X Xf.f.<X;X/ / ~ ~ ~ ; * o * F 3.z <.@ u ",
"          1             X X                                     JXKXKXa KXPXPXPXLX$X@Xc.K.. o       . .     3.q.e.z.w.z.N.9.9.9.",
"    O N                 X                                       PXPXPXPXLXPXPXKXJX$X$X@XV.: > > : : : $ , O $ : 6 @ @ , : $ $ , ",
"1.J p 3 : X           & z                                       B.m.n.m.m.^.!.{.lXcXcXcX}.).^.^.).Z._.V.G.OX&X*X&X&X&XHX&X*X*X*X",
"    X                                                           b.!.Q.I.`.T.R.R.uXaXjXzXgXfXxXhXQ.W.=XW.=Xj.|.W.j.k.k.j.FXFX%X%X",
"                                                                                    -XBX            o X $ $ & X @ @ #   X       ",
"                                                                    X     .         z <X{ B + { X.{ o.2X>X^ ;X8 X     X l.  X   ",
"  @       X   o X     @   + # O       .                         G.G.@XoXXXXXv.P.e..Xx.8.B B e < # % @ @ g h S x k # : = X @ 1 $ ",
"X X .       X @ X X , w X . - O 7 O   . . o               X @   o @ @ X X X % * 5 i <X8 ( ^ t           O.      .   5 F 6.5.s.B.",
"@ q A X O . X   X X X k J ,   4 : = . O O 4     & X & N z p & : @ @   X l.c.w.X X & z   O         X X @ 2 @               > u Z ",
"                  X u z.B.P.d.W.x.w.                            JXHXHXF.F.D.Z.{.MX..T     2     @ 3 S.A.Q.v.z.J.x.H.J.S.c.v.w.0.",
"                        : 4 2.z 1.        X                     HX*X#X#XM.m.m.{.kXcX7XP I d.9 % 2 x.H.H.Q.!._.kXlXlXcXzXyX'.T.p.",
"                      5 , < * ; ,   k $ 4 $                     p p 6 6 2 i i d d 9 6.kXhXJ.V.I.XXmXAXDXBXbX7XrX .} _ } 5X .qX  ",
"                                                                                    ,.M.M.M.m.n.n.n.m.m.n.n.N.m.m.Z.^.(.T.!.Q.Q."
};
