/* XPM */
static char *out[] = {
/* columns rows colors chars-per-pixel */
"64 64 256 2 ",
"   c #000001",
".  c #0B0104",
"X  c #02010B",
"o  c #0A010C",
"O  c #0A0A09",
"+  c #150209",
"@  c #020113",
"#  c #0B0214",
"$  c #020916",
"%  c #02021B",
"&  c #0C011C",
"*  c #080B1B",
"=  c #160418",
"-  c #131612",
";  c #27030D",
":  c #2F0C14",
">  c #270418",
",  c #060326",
"<  c #170328",
"1  c #0D152E",
"2  c #060538",
"3  c #190338",
"4  c #051335",
"5  c #270328",
"6  c #350427",
"7  c #2C162B",
"8  c #250439",
"9  c #37023A",
"0  c #23282D",
"q  c #480C19",
"w  c #5F2B1C",
"e  c #510B31",
"r  c #670B30",
"t  c #4F2B30",
"y  c #2E6528",
"u  c #604C2A",
"i  c #070447",
"p  c #180345",
"a  c #06184A",
"s  c #170258",
"d  c #0C1253",
"f  c #290546",
"g  c #370346",
"h  c #271B4C",
"j  c #2A0257",
"k  c #3A0556",
"l  c #0B2751",
"z  c #332149",
"x  c #0F0A70",
"c  c #280568",
"v  c #3A0367",
"b  c #2B0877",
"n  c #39047A",
"m  c #082E72",
"M  c #2E2375",
"N  c #4C0F4A",
"B  c #590448",
"V  c #480458",
"C  c #5A0358",
"Z  c #6F0B4D",
"A  c #670557",
"S  c #52294D",
"D  c #712754",
"F  c #480365",
"G  c #550467",
"H  c #480477",
"J  c #5B0377",
"K  c #4E1770",
"L  c #690569",
"P  c #730971",
"I  c #50257A",
"U  c #6F2767",
"Y  c #16496D",
"T  c #8D1034",
"R  c #B11035",
"E  c #983732",
"W  c #A8323A",
"Q  c #F40810",
"!  c #EE320F",
"~  c #CF142C",
"^  c #EE0936",
"/  c #D72937",
"(  c #EE2F2A",
")  c #95522B",
"_  c #A95727",
"`  c #EF520F",
"'  c #E8700E",
"]  c #D34C34",
"[  c #E05B28",
"{  c #D2712B",
"}  c #8D0B55",
"|  c #AB0854",
" . c #942959",
".. c #B03156",
"X. c #8D0C70",
"o. c #AF0A73",
"O. c #902E70",
"+. c #B12C70",
"@. c #CF0C54",
"#. c #EE0D50",
"$. c #F50257",
"%. c #D22A54",
"&. c #EB2D4A",
"*. c #C90776",
"=. c #D00E71",
"-. c #D40678",
";. c #F50366",
":. c #E90A73",
">. c #F30277",
",. c #CF3273",
"<. c #EB296A",
"1. c #B44E55",
"2. c #A15963",
"3. c #D45156",
"4. c #D26F52",
"5. c #D3486E",
"6. c #66D91B",
"7. c #2EBF70",
"8. c #36C453",
"9. c #AFB829",
"0. c #CF931B",
"q. c #E29513",
"w. c #D89625",
"e. c #9EDB14",
"r. c #D2CE11",
"t. c #A08C59",
"y. c #CE8546",
"u. c #0C088F",
"i. c #29058A",
"p. c #360487",
"a. c #321096",
"s. c #0A348D",
"d. c #0B08B6",
"f. c #2B08B4",
"g. c #0A35AA",
"h. c #2D27A6",
"j. c #490587",
"k. c #530B8D",
"l. c #5C0695",
"z. c #670684",
"x. c #6C0F8C",
"c. c #760495",
"v. c #4F258D",
"b. c #652588",
"n. c #4F07AE",
"m. c #7606A7",
"M. c #6E09B3",
"N. c #4A2BAD",
"B. c #7429AE",
"V. c #084689",
"C. c #0A5490",
"Z. c #1554A8",
"A. c #086AB3",
"S. c #5E649A",
"D. c #100BCD",
"F. c #2B07CF",
"G. c #3507D5",
"H. c #1330D0",
"J. c #2D2ED0",
"K. c #0D10EE",
"L. c #1704F7",
"P. c #0717F9",
"I. c #3606E4",
"U. c #3211EB",
"Y. c #2703F7",
"T. c #3A02F6",
"R. c #0825F9",
"E. c #1329F1",
"W. c #063AF6",
"Q. c #2B29F1",
"!. c #500CD0",
"~. c #6E0BD5",
"^. c #7604D8",
"/. c #4F2CCC",
"(. c #6224D0",
"). c #4A06E6",
"_. c #4E0CEC",
"`. c #4702F5",
"'. c #5800F6",
"]. c #6908E9",
"[. c #7706EA",
"{. c #6818E8",
"}. c #6601F6",
"|. c #7601F6",
" X c #4E2CEB",
".X c #682CEB",
"XX c #245AD6",
"oX c #0844F4",
"OX c #0B53F2",
"+X c #2C49EF",
"@X c #0768F4",
"#X c #0477F6",
"$X c #5252DA",
"%X c #890787",
"&X c #940E90",
"*X c #AF0D90",
"=X c #B60696",
"-X c #912B90",
";X c #AE2D92",
":X c #9505A9",
">X c #8B09B0",
",X c #9604B5",
"<X c #AA06A8",
"1X c #B00CAD",
"2X c #A603B6",
"3X c #B704B6",
"4X c #9223B1",
"5X c #AF25A8",
"6X c #CD0D8E",
"7X c #C90596",
"8X c #D60496",
"9X c #EB0A8A",
"0X c #E80295",
"qX c #D12692",
"wX c #E12C8B",
"eX c #C904A7",
"rX c #D504A6",
"tX c #C902B7",
"yX c #D405BA",
"uX c #ED03AB",
"iX c #E901B6",
"pX c #B44B90",
"aX c #D24393",
"sX c #8A0BCF",
"dX c #9604C7",
"fX c #9802D9",
"gX c #B002CE",
"hX c #8930D6",
"jX c #8903E8",
"kX c #9502EA",
"lX c #8700F6",
"zX c #9606F1",
"xX c #A701EA",
"cX c #B601EA",
"vX c #A800F4",
"bX c #B500F2",
"nX c #CC06CC",
"mX c #D602C7",
"MX c #EC00C9",
"NX c #F300C6",
"BX c #EA00D6",
"VX c #F600D7",
"CX c #C800EA",
"ZX c #D901EC",
"AX c #D000F0",
"SX c #E800E9",
"DX c #F000E2",
"FX c #9043CE",
"GX c #21B7A5",
"HX c #0A8ED8",
"JX c #0F93EC",
"KX c #0289F6",
"LX c #0296F5",
"PX c #02A8F7",
"IX c #04B2F5",
"UX c #03B5F8",
/* pixels */
"                                    X     X     2 @ X i s , s % @       , o X @     * Z.$ * 2 @ , @ @ @ 2 i i i 2 x i i D.s U.K.",
"                                                                                    @                                         X ",
"    . @     , X       p @ X X yXmXMX2X                          SXiX0X;.>.#.;.@.9X;.P       O.+.=.=.:X=X*XB.P v *         = e 6 ",
"          X - 3 -X1.1.pXqX*XmX2XgX[.T.'.`.                    O Y.L.Y.}.#.*X-Xp.u = =     * qX;X=X6X=XhX(.x.U t o       > J r X.",
"6 ; o     g.Z.u.g.V.g.V.V.s.`._.`.T.U.Q.U.  9 t r +.*X;X%.+.S 7 t W 1.+.6X,.pX&XS .         e r B.n.M. .<XO.5.+.5.2.qX5.5.1X;X5.",
"o   . 6 o.=.-.=.@.@.'.CXZXAXZXZXSXZXBXBXSX                      # = A | %.,.E t < ; + - D ;X..O.U 3 @ @ G < < V 1X;X,X-X2.U 4XN.",
"k k.k.x s b c c b j.8 = p x c b b 3 k.J Z.                      gXmX>.$.$.$.#.^ ;.uX>.#.-X&X7Xc.l.m.G F s 5 , 2 p.l.H n.l.M.%XF ",
"*       K.^.dX,X:X<X,X<XtX=X7X+.6X).M.-.n                       OXW.L.'.bXVX9X;.$.$.$.$.$.^ ^ ^ $.}.bXiX+       X             X ",
"        i v n.[.jXgXgXnXgXtX8X0X9XY.|.nX                        Q.{.].,X7XuX<.<.<.&.#.$.&.^ ;.&.#.dX7X9X            X           ",
"                        .                                       .               %     ,                         X   o U @ O.~.$X",
"            * , $   * $ 1 $ $ $ $ $ $ $ $ $ $ $ $ $             p.i.p.= : : ;     + o 4 7 * 4 Y s.h.g., p 3 i c d i.s s x M d l ",
"# % X                                                     X     i 8 p               i l l 4 i a d a a               X X ,     . ",
"          = 2     i                           O     % , 7 z p a.k j p.K 3 S N ; g c.&X*X8XqX=.9X-.9X0X.                 ,       ",
"                  7 F 9 jXM.k l.fXjXC V J J F * < X & < z.j.k.%XH 8 = < 8 k H :XJ L 8 8 g 8 J F G k g c 9 8 m.2XsX,XdX2X:XfX>XC ",
"oXE.).eXfXuXiX0XuXrX                                                                                        :X=X*X4.,...1.0.w.9.",
"X D 4X4XB.5X>X# @                                     @ $ o , 5 X -   @   i c 9 V 9 g g g g 9 8 2 d a a a 2 ].nXqX3.,.-.%.{ w.{ ",
":.0XuXuXiXiXBXMXVXL L                 .   o                     i.a.u.u.d.4 < = $             @             8     } o.o.X.} =X=X",
"6.e.8.8.7.GX7.- - - + - - O .                                   OXOXoXP.K.5 *   , X         @ O X X o * o @ 9 o # J # < > } x.l.",
"L         $ m.1X<X9X8XmXo.3X3XgX>XdX[.sX[.].[.'.|.].`._._._.'.kXM.X AXAXBXmXB I Z v L v j.C k C x.z.j 3     f   . p.    7   e J ",
"rXtXiXiXqXmXmXiXBXiX;XqX*XqX} X.X.U C Z A A = . . # . + . + O . $X.X.X.XsXrXrX@ @ o . X   . . X       o   . X O X   + o .   .   ",
"r.` ` ( :.0XuX>.wX4.5.4.[ %.! e.2.<.{ q.9X[ 9Xo.:.0XuXuXNXNXrX5XD L C B } &X<X#.&.&.O.qX5X=X6X;Xo.%XX.B 9 V g 8 V t : : e 7 7 5 ",
"! ! ` 9.0.#.;.>.;.:.dX;.;.=.0.:.:.mX9X#.:.$.%XA J #             4.e.e.uXNXVXZXH p.a.:XgX5XdXo.&XU V A r & q w : q B < < 8 2 L j ",
"D . g h @ . + = : 0 0 p 3 M k U S 1 7 h 5 K k.V !.+             rXy.1.nXDXnXhXsXB.V V v J J *XO.O.*X*X4XnX1X-X;X%.L T z N   i X ",
"        f.D.F.N L [.zXtXtX1Xl./.N.p.V.Y C.Z.* 5 ,               Q.bXjX{.[.[.nX0X@.: : =   5 k M.2X=Xj.&X,X2X,XM.:X/.c.>X:Xm.c.k.",
"      f.f.P.K.- 1 , 0 tXnX/ 6X X=X{.(.Q.OXR.5 V e               E.gX8X:X;.>.;.$.;.;.>.$.@.R | ~ ^ o.6XuXgX9X0XtX7X,Xc.F F (.~.$X",
") T T o.| R |  .| | *Xo.*.} X.p.p.L a.k.k.F v G v         O     N.| X.x.o.| ~ R R 6X3.4.t.;X1X3XgX;X=X;XpX-X-X;X,.1 h   , o X @ ",
"    O               u.a.l.j.A S   * 7 X #   X 7 + N V   S S - X , o # o 7 . X   O   p.'.I.).^.kX~.jX~.{.~.jXdXxXk < 8 8 , k V l.",
"q r r r r } | @.%./ R o.k # .     X X   X     $   X   .   .     gX*.-.tX:./ { r.r.r.r.9.iXMXKX                  b.%X&X>X:Xz.k g ",
"        9 V r B B B V         .                                 b c F A A C r e e e 2.%.] qXN.    O     X               < .   @ ",
"              . + + + ; + + + : jXjXjX^.^.].r r r } } *.=.*.*.*.7X7XyX6X6 7 q 6 G n F v z.m.M.B.M.l.I b.~.=X=X=.@.@.-.-.*XyXcX].",
"                                                                                    m JXLXLX      @ + = - > = < 5 3 , 3 v.a.v p ",
"                                                                                    4 a       J.n.t.D ) _ ) _ { { ' ' y.[ { ' { ",
"* v j.v.n.a.j.G X.P n.z.z.n.n..                                 xXnXrXuX9XgXgX<X8XrX-.0X7X6X6X. F.jXxXbXZXZXbX|. XE.R.E.lXlXbXbX",
"6.*X,XeX#.-.@.&./ &.&.&.<.#.@.=.&.&.                            6XQ $.>.^ ! ` ' q.` ! ` ` q.q.q.q.q.  O   .                     ",
".           X X O       r Z r ..%X&X*X*Xo.L B N         :X,X,X2X<X=X3X5XgX=Xo.7Xo...,._ { _ 1.W E _ W  .P Z q = x K.K.K.| ^ &.] ",
"v SXBXCXAXnXSXZXbXzX}.Y.P.R.E.OXOXs.% $ $ $ % @ % $ $ % $ % @ % SXSXSXW.R.R.L.lXCXSX>.Q q.e.6.6.6.!.'.].  3 < 9 g p 5 3 < #     ",
" X.X}.CXt.5.1.<.%.%.3.( &.<.<.uXzXx m d m m m m x m m x x x x x {.[.~.t.t.jXjXkXkXvX7X$.#.&.<.wX:.Q.Q.h.5 o O e L <X<X%X8 X   o ",
" XU.Q.XX$X$X+X$X$X$X$X$X$XXXxXxXcXgXbXvXbXxXkXjX^.~.).G.I.U.K.I.I.G.K.Y.U.I.< . o $ o j + 9 : 9 U m.(.!.!.{.rXyXyXyX0X9X8X0X8XrX",
", x x I.).U.U.j.                                    .           AXvXxX9X9X,.4.t F 9 I v.:X:XsXj.H a.M.w @ w g < , , X & . 7 g 3 ",
"k     .   @ , 5 X   * i 9 g s % =   o 5                         lX'.'._.U.Q.pXu.* c M c c n.d c n.).!.x % & % % # < 2 2 X X # 8 ",
"    # s.W.Q.M.jXn.^.^.jXM.v z.,X>X&X.                           lX|.lXm.Q $.;.x.P A H h H 8 a.i.).!.M.b   O       p f       X f ",
".     p j k 9  .G X.| P A u W ;X1.2.2 d i % $                   A z.P m.| | X.V k v n.H p.d G D r B Z } X.&XA U J P %       X   ",
"$ 5 ; X   O g     :     9 r e + q t u y r L + 5 f               OXJ.mX-.yXmX,.  @ l.O.6 = e e q B e r C 7 # + # = > & X         ",
">XeX@.D ,.:.2.qX6Xo.>X*.-.eX6X7Xc.g j j v B G k k k b b s c c c <XmXBXnXCXCXgX6X} fXjXfXfXdXfXsX{.N..XM.v.B./.h.m m Y m l l m x ",
"3XgXnXA tX<X&X-.@.=.8X@.3.&.#.~ &./ 0.5.+.3.W aX+.5.BX          3.SXSXaXVXDXVXVXVXtX7X@.T @.| | @.T &XD Z C P A A 6 6 N k.l.p.N.",
"} } %Xe | o.| | T @.*.| o.6X7X7XmXtXgXtX6X6X0X8XyXxXI.    X BXBXMXDXBXNXVXDXVXVXVXNXVXDXCXCXvXlX|.}.}.}.`.T.Y.P.#XPXPXPXUX].L.L.",
"s.s.V.V.V.m V.s.m s.x u.x u.u.u.u.p.i.b p.p.J P J c.l.G G F G   [.{.{.[.FXjX|.S. X_.U.|.).*X( ` ( ! ! ! ^ / %.&.] - * X , , < 3 ",
"KXLXKXKXKXLX#X#XOXR.R.K.K.K.L.L.L.T.`.'.}.'.}.|.|.|.'.'.`.`.T.  Z.V.C.y Y C.A.t Z.XX/.!._.fXfXrX*.6XrXeX6X4XB.o   .       S.Q.H.",
"#XPXLXLXKXLXLXLXPXPXHXKX#X#X@X@X+X).].jXbXbXCXcXzX XQ.+X+XQ.'.X     X         .       + + O ; O . + q u ] ' 1.Z S O.%.P >X}  .-X",
"* * 4 a 2 4 4 i 4 4 4 a 2 , 2 f 3 3 , 3 3 9 3 3 < 2 2 4 3 , i X X @ @ o @ X % & X @ o # X $ X     O + w ) ) /.>Xm.>XK m.5XfX^.O.",
": : + K. XW.P.L.P.P.P.R.E.P.R.R.R.R.R.P.R.R.P.Q.R.R.R.R.P.R.R.P.P.R.P.R.R.R.W.E.P.P.K.R.R.R.E.OX#XKXLXUXUXUXUXh.!.^.c.5 f jXx u.",
": +   kXbXbXcX3X,X3XdXdX3X:XdXdX,X,X>X>X,X,X,X,XdXdX:XhXsX,XdXdXdXdXdXfX4XsXsXdX,XsX:XdXhXHXKXXXKXLXPXPXPXLX<XJ X.L ^.,X|.vX>X>X",
"  o . i % , , % = # x < < , % , , % % * @ @ % , % @ @ % $ @ $ @ UXUXIXJXJXJXUXJX@X/.(. X/.g s p p p n.!.G.F.!.!.G.!.M.!.!.!.G.!.",
"u.u.u.d.u.i.i.p.l.l.z.z.c.X.L L j.i.i.u.s.s.V.V.C.V.V.C.C.V.s.C.+X$X.XhXhXFX1X>.$.( ( ( [ ( #.8XMXiXvX'.T.P.P.Q.W.oXR.OXW.oXW.W.",
"L.Y.Y.L.L.`.'.}.|.|.|.|.lXlXzX}.T.+X#X#X@X#X#X#XKXKX#XJXLXKXKXLXJXLXPXKXPXLXOXI.G.G.J.Y.'.`._.F.).).'.'.'.).f.* o & (./. X.X.X X",
"X       X               .                                                           i.L.  o             X @   X   @ % - $   . O ",
"            X                                                                   X   x M     & 8 Z P } | | | | =.} e H l.D.    + ",
"  O   #   X =     . o 1     7     @ @ f       .       .         E.OX@XOXoXOXJ.J.Z.H.Z.M.H c v /.N.N.b.H v.M.l.m.n G h N <   - 7 ",
"o.c.o r e 7 < + , 3 @ F f & 8 5 ; e r Z Z +.+ # - - - - - + = X o o = # + < > 6 f O.N z.,X4X3X<X%X:Xc.P <XK V 8 p , 9 X.%XX.:Xc.",
"J.D.E.x g.G.F.F.F.G.D.F.G.D.F.G.F.f.!.F.n ).D.i.d.d.f.    X     X   O 2 M N.N % @ @             h.h.3 4 @             * , 2 a.v.",
"R.P.P.u.P.P.D.P.P.P.P.P.P.P.P.L.P.P.P.P.H.R.W.Z.KXIXHX          oXE.R.P.P.E.Q.Q.Q.Q.{.    ,     # s c u.u.f.f.F.!./.!.!.n.n.H 2 ",
"    X         % k n.%Xm.4X .B.O.v.X 2   X % X   o               #XW.W.E.Y.`.AXiX;.( q.e.e.-X7 < - M.4.{ y.) ) u w w u r 2.-XI v.",
"o ; ; : : 6 > > , 8 3 1 h 1 2 4 i O 5 9 = X                     l a l a s f g 6 : q v.N././.h.hXH.G.P.Y.T.G.I.G.~.G.).^.^.!.n.X ",
"JXJXPXC.LXPXA.JXKXJXIXIXIXIXKXPXKXJXJXLXA.KXKXA.PXLXPXIXUXUXUXUXIXPXPXUXPXIXIXIXIXIXUXPXW.R.@XOXK.L.L.L.Y.T.`.}.}.lXvXvXbXcXcXbX"
};
